<svg width="13" height="14" viewBox="0 0 13 14" fill="none" xmlns="http://www.w3.org/2000/svg">
<path d="M6.50977 13.1596C6.07643 13.1596 5.7431 13.0429 5.50977 12.8096C5.27643 12.5596 5.15977 12.2179 5.15977 11.7846V8.05957H1.50977C1.0931 8.05957 0.768099 7.95124 0.534766 7.73457C0.301432 7.50124 0.184766 7.17624 0.184766 6.75957C0.184766 6.3429 0.301432 6.02624 0.534766 5.80957C0.768099 5.57624 1.0931 5.45957 1.50977 5.45957H5.15977V1.88457C5.15977 1.43457 5.27643 1.0929 5.50977 0.85957C5.7431 0.626237 6.08477 0.50957 6.53477 0.50957C6.9681 0.50957 7.2931 0.626237 7.50977 0.85957C7.7431 1.0929 7.85977 1.43457 7.85977 1.88457V5.45957H11.5098C11.9431 5.45957 12.2681 5.57624 12.4848 5.80957C12.7181 6.02624 12.8348 6.3429 12.8348 6.75957C12.8348 7.17624 12.7181 7.50124 12.4848 7.73457C12.2681 7.95124 11.9431 8.05957 11.5098 8.05957H7.85977V11.7846C7.85977 12.2179 7.7431 12.5596 7.50977 12.8096C7.2931 13.0429 6.95977 13.1596 6.50977 13.1596Z" fill="white"/>
</svg>
