<svg width="40" height="35" viewBox="0 0 40 35" fill="none" xmlns="http://www.w3.org/2000/svg">
<g clip-path="url(#clip0_2_1397)">
<path d="M1.56815 23.901H38.4303C38.4303 23.618 38.4303 23.3444 38.4303 23.0692C38.4303 17.1727 38.4303 11.2746 38.4303 5.37814C38.4303 3.41264 37.5681 2.53524 35.6392 2.53367C31.786 2.53367 27.9328 2.53367 24.0812 2.53367C23.8469 2.53367 23.5486 2.60757 23.394 2.49279C23.1363 2.29938 22.8317 1.99119 22.8114 1.7113C22.7942 1.4833 23.1316 1.18298 23.3753 0.999005C23.5127 0.895227 23.7782 0.958123 23.986 0.958123C27.9172 0.958123 31.8469 0.953406 35.7782 0.958123C38.3881 0.961268 39.9953 2.59027 39.9969 5.2382C40 13.704 40 22.1682 39.9969 30.634C39.9969 33.3213 38.3928 34.9314 35.7173 34.9314C25.2261 34.933 14.7349 34.9345 4.24367 34.9314C1.62282 34.9314 0.00313714 33.3055 0.00157525 30.6733C1.33606e-05 22.1824 1.33605e-05 13.6914 0.00313714 5.20046C0.00313714 2.60757 1.62438 0.961268 4.17963 0.958123C8.1359 0.951833 12.0937 0.956551 16.05 0.958123C16.2062 0.958123 16.4123 0.898372 16.5092 0.975419C16.7841 1.19713 17.2027 1.46915 17.2089 1.73017C17.2152 1.99119 16.8184 2.30095 16.5389 2.51008C16.403 2.61229 16.1359 2.53524 15.9266 2.53524C12.0484 2.53524 8.1687 2.53524 4.29052 2.53524C2.46155 2.53524 1.56815 3.43937 1.56815 5.29008C1.56659 11.2133 1.56815 17.1365 1.56815 23.0598V23.9026V23.901ZM38.4241 25.5489H1.56815C1.56815 27.2471 1.56815 28.8934 1.56815 30.5397C1.56971 32.4832 2.44125 33.3559 4.38424 33.3559C14.7911 33.3559 25.198 33.3559 35.6033 33.3559C35.811 33.3559 36.0203 33.3637 36.228 33.348C37.4057 33.2599 38.3756 32.3574 38.41 31.1765C38.4615 29.3211 38.4241 27.4641 38.4241 25.5489Z" fill="#005CFF"/>
<path d="M16 13.1679C16 12.41 15.9672 11.649 16.0063 10.8942C16.1031 8.99946 17.7993 8.04659 19.4487 8.9633C20.7653 9.69603 22.0726 10.4492 23.3596 11.2323C24.9731 12.2134 24.9918 14.212 23.3924 15.1947C22.0867 15.9982 20.7575 16.7655 19.4159 17.5061C17.8024 18.3977 16.1156 17.4495 16.0094 15.5988C15.9625 14.7906 16.0016 13.9777 16.0016 13.1679C16.0016 13.1679 16 13.1679 15.9985 13.1679H16ZM17.5682 13.1962C17.5682 13.1962 17.5697 13.1962 17.5713 13.1962C17.5713 13.9541 17.5447 14.712 17.5791 15.4667C17.6119 16.1963 18.0492 16.4574 18.6818 16.1067C19.975 15.3897 21.2527 14.6444 22.5193 13.8802C23.1785 13.4824 23.1707 12.9635 22.5037 12.5625C21.2589 11.8125 20.0031 11.0813 18.7349 10.3722C18.0305 9.97907 17.5994 10.2511 17.5728 11.0813C17.551 11.7858 17.5682 12.4918 17.5682 13.1962Z" fill="#005CFF"/>
<path d="M19.8219 2.64222C19.6251 2.33246 19.2394 1.99282 19.2831 1.72394C19.3299 1.43619 19.761 1.06353 20.0656 1.01951C20.2655 0.991203 20.7216 1.47236 20.731 1.73809C20.7419 2.03528 20.378 2.34661 20.1765 2.65166C20.0578 2.64851 19.9391 2.64537 19.8219 2.64379V2.64222Z" fill="#005CFF"/>
<path d="M23.9781 30.2142C20.9356 30.2142 17.8946 30.2142 14.852 30.2142C14.6443 30.2142 14.3725 30.2897 14.2413 30.1875C13.968 29.9736 13.615 29.6796 13.5869 29.3903C13.565 29.167 13.957 28.8557 14.2226 28.667C14.3631 28.5664 14.6255 28.6387 14.8348 28.6387C20.9715 28.6387 27.1066 28.6387 33.2433 28.6387C33.3994 28.6387 33.6025 28.5774 33.7025 28.6528C33.9992 28.8793 34.2538 29.1591 34.5256 29.417C34.26 29.6812 34.0195 29.9847 33.7165 30.1954C33.5744 30.2944 33.312 30.2158 33.1042 30.2158C30.0617 30.2158 27.0207 30.2158 23.9781 30.2158V30.2142Z" fill="#005CFF"/>
<path d="M7.82819 27.0679C9.10582 27.0789 10.1538 28.1419 10.1538 29.4265C10.1538 30.7411 9.0574 31.8166 7.7501 31.7851C6.47091 31.7537 5.45099 30.6813 5.46974 29.3872C5.48848 28.0963 6.54432 27.0585 7.82819 27.0679ZM8.89027 29.4077C8.40453 29.0586 8.08434 28.6576 7.84381 28.7017C7.54236 28.7567 7.30496 29.1765 7.041 29.4375C7.31433 29.6923 7.56267 30.1042 7.86724 30.1498C8.10777 30.186 8.41546 29.7725 8.89184 29.4077H8.89027Z" fill="#005CFF"/>
</g>
<defs>
<clipPath id="clip0_2_1397">
<rect width="40" height="34" fill="white" transform="translate(0 0.93457)"/>
</clipPath>
</defs>
</svg>
