<svg width="36" height="43" viewBox="0 0 36 43" fill="none" xmlns="http://www.w3.org/2000/svg">
<g clip-path="url(#clip0_2_1412)">
<path d="M0.00602944 21.9339C0.00602944 17.2312 -0.00965342 12.5301 0.0123026 7.82731C0.0279854 4.20224 2.09342 1.59743 5.37114 1.01676C5.77889 0.944591 6.20233 0.93967 6.61949 0.93967C12.8142 0.934749 19.0089 0.933109 25.2037 0.93803C29.1526 0.94131 31.8124 3.67898 31.8281 7.80435C31.8501 13.3535 31.8344 18.9026 31.8313 24.4534C31.8313 24.6995 31.8265 24.9472 31.7873 25.1883C31.6619 25.956 31.0534 26.5005 30.3163 26.5251C29.5839 26.5497 28.9299 26.0478 28.7731 25.2834C28.6978 24.9144 28.69 24.524 28.69 24.1434C28.6853 18.8124 28.6884 13.4814 28.6853 8.15045C28.6853 5.41934 27.5279 4.22192 24.8979 4.22192C18.86 4.22192 12.8221 4.22192 6.78416 4.22192C4.38155 4.22192 3.15515 5.48167 3.15201 7.99298C3.14574 17.2869 3.14574 26.5826 3.15201 35.8765C3.15358 38.3862 4.37998 39.6443 6.78416 39.6459C9.58041 39.6476 12.3782 39.6377 15.1745 39.6525C16.1829 39.6574 16.8667 40.3513 16.8635 41.2961C16.8604 42.2409 16.1766 42.8987 15.1635 42.9315C15.0333 42.9364 14.9016 42.9315 14.7714 42.9315C12.0787 42.9315 9.38752 42.9347 6.69477 42.9315C2.65643 42.9265 0.0248489 40.1954 0.00759773 35.9569C-0.00965342 32.1022 0.00446116 28.2475 0.00446116 24.3927C0.00446116 23.5726 0.00446116 22.7524 0.00446116 21.9323L0.00602944 21.9339Z" fill="#005CFF"/>
<path d="M24.9154 42.9328C23.6216 42.9099 22.6461 42.4489 21.8227 41.6206C20.2591 40.0508 18.6924 38.486 17.1383 36.9064C16.3604 36.1174 16.282 35.1479 16.9062 34.4426C17.5633 33.6996 18.4901 33.734 19.3166 34.5558C20.83 36.0616 22.3293 37.5822 23.8411 39.0896C24.6456 39.8917 25.0675 39.8425 25.7246 38.8846C28.0959 35.4252 30.464 31.9608 32.8368 28.5014C33.003 28.2587 33.1661 28.0028 33.3716 27.7977C33.9393 27.2302 34.7579 27.1974 35.3759 27.6878C35.9953 28.1783 36.1772 28.9968 35.815 29.7382C35.7083 29.9547 35.564 30.1532 35.4276 30.3517C33.014 33.8816 30.5894 37.4034 28.1884 40.9415C27.3447 42.1849 26.2343 42.8721 24.9154 42.9312V42.9328Z" fill="#005CFF"/>
<path d="M15.9291 10.7781C18.5121 10.7781 21.0966 10.7748 23.6796 10.7781C24.8464 10.7797 25.527 11.3768 25.5443 12.3888C25.5615 13.437 24.8684 14.0603 23.6623 14.062C18.4948 14.0652 13.3273 14.0652 8.15984 14.062C7.01342 14.062 6.30299 13.4419 6.28417 12.4512C6.26535 11.4293 6.99147 10.7797 8.17709 10.7781C10.7601 10.7731 13.3446 10.7781 15.9276 10.7781H15.9291Z" fill="#005CFF"/>
<path d="M15.8664 20.6249C13.3085 20.6249 10.7506 20.6282 8.19432 20.6249C6.99458 20.6233 6.27474 19.9934 6.28415 18.9698C6.29199 17.9545 7.0134 17.3426 8.22098 17.341C13.3618 17.3394 18.5042 17.3377 23.6451 17.341C24.8621 17.341 25.5521 17.9512 25.5443 18.9961C25.5364 20.036 24.8479 20.6233 23.6184 20.6249C21.0354 20.6282 18.4509 20.6249 15.8679 20.6249H15.8664Z" fill="#005CFF"/>
<path d="M12.7893 27.1861C11.2226 27.1861 9.65747 27.1927 8.09075 27.1845C6.97727 27.1779 6.25899 26.5004 6.28408 25.5031C6.30761 24.537 7.0055 23.9071 8.09075 23.9038C11.1975 23.8973 14.3027 23.8973 17.4095 23.9038C18.5261 23.9071 19.2428 24.5879 19.2177 25.5852C19.1942 26.5529 18.4995 27.1779 17.4095 27.1845C15.8694 27.1943 14.3294 27.1861 12.7893 27.1861Z" fill="#005CFF"/>
</g>
<defs>
<clipPath id="clip0_2_1412">
<rect width="36" height="42" fill="white" transform="translate(0 0.93457)"/>
</clipPath>
</defs>
</svg>
