<svg width="139" height="132" viewBox="0 0 139 132" fill="none" xmlns="http://www.w3.org/2000/svg">
<g clip-path="url(#clip0_7_1658)">
<path d="M1.81018 4.54598C2.80992 4.54598 3.62036 3.73751 3.62036 2.74021C3.62036 1.74292 2.80992 0.934448 1.81018 0.934448C0.810446 0.934448 0 1.74292 0 2.74021C0 3.73751 0.810446 4.54598 1.81018 4.54598Z" fill="#272727"/>
<path d="M10.2709 4.54598C11.2706 4.54598 12.0811 3.73751 12.0811 2.74021C12.0811 1.74292 11.2706 0.934448 10.2709 0.934448C9.27114 0.934448 8.46069 1.74292 8.46069 2.74021C8.46069 3.73751 9.27114 4.54598 10.2709 4.54598Z" fill="#272727"/>
<path d="M18.7327 4.54598C19.7324 4.54598 20.5428 3.73751 20.5428 2.74021C20.5428 1.74292 19.7324 0.934448 18.7327 0.934448C17.7329 0.934448 16.9225 1.74292 16.9225 2.74021C16.9225 3.73751 17.7329 4.54598 18.7327 4.54598Z" fill="#272727"/>
<path d="M27.1944 4.54598C28.1941 4.54598 29.0046 3.73751 29.0046 2.74021C29.0046 1.74292 28.1941 0.934448 27.1944 0.934448C26.1947 0.934448 25.3842 1.74292 25.3842 2.74021C25.3842 3.73751 26.1947 4.54598 27.1944 4.54598Z" fill="#272727"/>
<path d="M35.6551 4.54598C36.6548 4.54598 37.4653 3.73751 37.4653 2.74021C37.4653 1.74292 36.6548 0.934448 35.6551 0.934448C34.6554 0.934448 33.8449 1.74292 33.8449 2.74021C33.8449 3.73751 34.6554 4.54598 35.6551 4.54598Z" fill="#272727"/>
<path d="M44.1158 4.54598C45.1155 4.54598 45.926 3.73751 45.926 2.74021C45.926 1.74292 45.1155 0.934448 44.1158 0.934448C43.116 0.934448 42.3056 1.74292 42.3056 2.74021C42.3056 3.73751 43.116 4.54598 44.1158 4.54598Z" fill="#272727"/>
<path d="M52.5775 4.54598C53.5773 4.54598 54.3877 3.73751 54.3877 2.74021C54.3877 1.74292 53.5773 0.934448 52.5775 0.934448C51.5778 0.934448 50.7673 1.74292 50.7673 2.74021C50.7673 3.73751 51.5778 4.54598 52.5775 4.54598Z" fill="#272727"/>
<path d="M61.0393 4.54598C62.039 4.54598 62.8495 3.73751 62.8495 2.74021C62.8495 1.74292 62.039 0.934448 61.0393 0.934448C60.0396 0.934448 59.2291 1.74292 59.2291 2.74021C59.2291 3.73751 60.0396 4.54598 61.0393 4.54598Z" fill="#272727"/>
<path d="M69.5 4.54598C70.4997 4.54598 71.3102 3.73751 71.3102 2.74021C71.3102 1.74292 70.4997 0.934448 69.5 0.934448C68.5003 0.934448 67.6898 1.74292 67.6898 2.74021C67.6898 3.73751 68.5003 4.54598 69.5 4.54598Z" fill="#272727"/>
<path d="M77.9607 4.54598C78.9604 4.54598 79.7709 3.73751 79.7709 2.74021C79.7709 1.74292 78.9604 0.934448 77.9607 0.934448C76.961 0.934448 76.1505 1.74292 76.1505 2.74021C76.1505 3.73751 76.961 4.54598 77.9607 4.54598Z" fill="#272727"/>
<path d="M86.4225 4.54598C87.4222 4.54598 88.2327 3.73751 88.2327 2.74021C88.2327 1.74292 87.4222 0.934448 86.4225 0.934448C85.4228 0.934448 84.6123 1.74292 84.6123 2.74021C84.6123 3.73751 85.4228 4.54598 86.4225 4.54598Z" fill="#272727"/>
<path d="M94.8843 4.54598C95.884 4.54598 96.6945 3.73751 96.6945 2.74021C96.6945 1.74292 95.884 0.934448 94.8843 0.934448C93.8845 0.934448 93.0741 1.74292 93.0741 2.74021C93.0741 3.73751 93.8845 4.54598 94.8843 4.54598Z" fill="#272727"/>
<path d="M103.345 4.54598C104.345 4.54598 105.155 3.73751 105.155 2.74021C105.155 1.74292 104.345 0.934448 103.345 0.934448C102.345 0.934448 101.535 1.74292 101.535 2.74021C101.535 3.73751 102.345 4.54598 103.345 4.54598Z" fill="#272727"/>
<path d="M111.806 4.54598C112.805 4.54598 113.616 3.73751 113.616 2.74021C113.616 1.74292 112.805 0.934448 111.806 0.934448C110.806 0.934448 109.995 1.74292 109.995 2.74021C109.995 3.73751 110.806 4.54598 111.806 4.54598Z" fill="#272727"/>
<path d="M120.267 4.54598C121.267 4.54598 122.078 3.73751 122.078 2.74021C122.078 1.74292 121.267 0.934448 120.267 0.934448C119.268 0.934448 118.457 1.74292 118.457 2.74021C118.457 3.73751 119.268 4.54598 120.267 4.54598Z" fill="#272727"/>
<path d="M128.729 4.54598C129.729 4.54598 130.539 3.73751 130.539 2.74021C130.539 1.74292 129.729 0.934448 128.729 0.934448C127.729 0.934448 126.919 1.74292 126.919 2.74021C126.919 3.73751 127.729 4.54598 128.729 4.54598Z" fill="#272727"/>
<path d="M137.19 4.54598C138.19 4.54598 139 3.73751 139 2.74021C139 1.74292 138.19 0.934448 137.19 0.934448C136.19 0.934448 135.38 1.74292 135.38 2.74021C135.38 3.73751 136.19 4.54598 137.19 4.54598Z" fill="#272727"/>
<path d="M1.81018 12.5078C2.80992 12.5078 3.62036 11.6993 3.62036 10.702C3.62036 9.70471 2.80992 8.89624 1.81018 8.89624C0.810446 8.89624 0 9.70471 0 10.702C0 11.6993 0.810446 12.5078 1.81018 12.5078Z" fill="#272727"/>
<path d="M10.2709 12.5078C11.2706 12.5078 12.0811 11.6993 12.0811 10.702C12.0811 9.70471 11.2706 8.89624 10.2709 8.89624C9.27114 8.89624 8.46069 9.70471 8.46069 10.702C8.46069 11.6993 9.27114 12.5078 10.2709 12.5078Z" fill="#272727"/>
<path d="M18.7327 12.5078C19.7324 12.5078 20.5428 11.6993 20.5428 10.702C20.5428 9.70471 19.7324 8.89624 18.7327 8.89624C17.7329 8.89624 16.9225 9.70471 16.9225 10.702C16.9225 11.6993 17.7329 12.5078 18.7327 12.5078Z" fill="#272727"/>
<path d="M27.1944 12.5078C28.1941 12.5078 29.0046 11.6993 29.0046 10.702C29.0046 9.70471 28.1941 8.89624 27.1944 8.89624C26.1947 8.89624 25.3842 9.70471 25.3842 10.702C25.3842 11.6993 26.1947 12.5078 27.1944 12.5078Z" fill="#272727"/>
<path d="M35.6551 12.5078C36.6548 12.5078 37.4653 11.6993 37.4653 10.702C37.4653 9.70471 36.6548 8.89624 35.6551 8.89624C34.6554 8.89624 33.8449 9.70471 33.8449 10.702C33.8449 11.6993 34.6554 12.5078 35.6551 12.5078Z" fill="#272727"/>
<path d="M44.1158 12.5078C45.1155 12.5078 45.926 11.6993 45.926 10.702C45.926 9.70471 45.1155 8.89624 44.1158 8.89624C43.116 8.89624 42.3056 9.70471 42.3056 10.702C42.3056 11.6993 43.116 12.5078 44.1158 12.5078Z" fill="#272727"/>
<path d="M52.5775 12.5078C53.5773 12.5078 54.3877 11.6993 54.3877 10.702C54.3877 9.70471 53.5773 8.89624 52.5775 8.89624C51.5778 8.89624 50.7673 9.70471 50.7673 10.702C50.7673 11.6993 51.5778 12.5078 52.5775 12.5078Z" fill="#272727"/>
<path d="M61.0393 12.5078C62.039 12.5078 62.8495 11.6993 62.8495 10.702C62.8495 9.70471 62.039 8.89624 61.0393 8.89624C60.0396 8.89624 59.2291 9.70471 59.2291 10.702C59.2291 11.6993 60.0396 12.5078 61.0393 12.5078Z" fill="#272727"/>
<path d="M69.5 12.5078C70.4997 12.5078 71.3102 11.6993 71.3102 10.702C71.3102 9.70471 70.4997 8.89624 69.5 8.89624C68.5003 8.89624 67.6898 9.70471 67.6898 10.702C67.6898 11.6993 68.5003 12.5078 69.5 12.5078Z" fill="#272727"/>
<path d="M77.9607 12.5078C78.9604 12.5078 79.7709 11.6993 79.7709 10.702C79.7709 9.70471 78.9604 8.89624 77.9607 8.89624C76.961 8.89624 76.1505 9.70471 76.1505 10.702C76.1505 11.6993 76.961 12.5078 77.9607 12.5078Z" fill="#272727"/>
<path d="M86.4225 12.5078C87.4222 12.5078 88.2327 11.6993 88.2327 10.702C88.2327 9.70471 87.4222 8.89624 86.4225 8.89624C85.4228 8.89624 84.6123 9.70471 84.6123 10.702C84.6123 11.6993 85.4228 12.5078 86.4225 12.5078Z" fill="#272727"/>
<path d="M94.8843 12.5078C95.884 12.5078 96.6945 11.6993 96.6945 10.702C96.6945 9.70471 95.884 8.89624 94.8843 8.89624C93.8845 8.89624 93.0741 9.70471 93.0741 10.702C93.0741 11.6993 93.8845 12.5078 94.8843 12.5078Z" fill="#272727"/>
<path d="M103.345 12.5078C104.345 12.5078 105.155 11.6993 105.155 10.702C105.155 9.70471 104.345 8.89624 103.345 8.89624C102.345 8.89624 101.535 9.70471 101.535 10.702C101.535 11.6993 102.345 12.5078 103.345 12.5078Z" fill="#272727"/>
<path d="M111.806 12.5078C112.805 12.5078 113.616 11.6993 113.616 10.702C113.616 9.70471 112.805 8.89624 111.806 8.89624C110.806 8.89624 109.995 9.70471 109.995 10.702C109.995 11.6993 110.806 12.5078 111.806 12.5078Z" fill="#272727"/>
<path d="M120.267 12.5078C121.267 12.5078 122.078 11.6993 122.078 10.702C122.078 9.70471 121.267 8.89624 120.267 8.89624C119.268 8.89624 118.457 9.70471 118.457 10.702C118.457 11.6993 119.268 12.5078 120.267 12.5078Z" fill="#272727"/>
<path d="M128.729 12.5078C129.729 12.5078 130.539 11.6993 130.539 10.702C130.539 9.70471 129.729 8.89624 128.729 8.89624C127.729 8.89624 126.919 9.70471 126.919 10.702C126.919 11.6993 127.729 12.5078 128.729 12.5078Z" fill="#272727"/>
<path d="M137.19 12.5078C138.19 12.5078 139 11.6993 139 10.702C139 9.70471 138.19 8.89624 137.19 8.89624C136.19 8.89624 135.38 9.70471 135.38 10.702C135.38 11.6993 136.19 12.5078 137.19 12.5078Z" fill="#272727"/>
<path d="M1.81018 20.4696C2.80992 20.4696 3.62036 19.6611 3.62036 18.6638C3.62036 17.6665 2.80992 16.858 1.81018 16.858C0.810446 16.858 0 17.6665 0 18.6638C0 19.6611 0.810446 20.4696 1.81018 20.4696Z" fill="#272727"/>
<path d="M10.2709 20.4696C11.2706 20.4696 12.0811 19.6611 12.0811 18.6638C12.0811 17.6665 11.2706 16.858 10.2709 16.858C9.27114 16.858 8.46069 17.6665 8.46069 18.6638C8.46069 19.6611 9.27114 20.4696 10.2709 20.4696Z" fill="#272727"/>
<path d="M18.7327 20.4696C19.7324 20.4696 20.5428 19.6611 20.5428 18.6638C20.5428 17.6665 19.7324 16.858 18.7327 16.858C17.7329 16.858 16.9225 17.6665 16.9225 18.6638C16.9225 19.6611 17.7329 20.4696 18.7327 20.4696Z" fill="#272727"/>
<path d="M27.1944 20.4696C28.1941 20.4696 29.0046 19.6611 29.0046 18.6638C29.0046 17.6665 28.1941 16.858 27.1944 16.858C26.1947 16.858 25.3842 17.6665 25.3842 18.6638C25.3842 19.6611 26.1947 20.4696 27.1944 20.4696Z" fill="#272727"/>
<path d="M35.6551 20.4696C36.6548 20.4696 37.4653 19.6611 37.4653 18.6638C37.4653 17.6665 36.6548 16.858 35.6551 16.858C34.6554 16.858 33.8449 17.6665 33.8449 18.6638C33.8449 19.6611 34.6554 20.4696 35.6551 20.4696Z" fill="#272727"/>
<path d="M44.1158 20.4696C45.1155 20.4696 45.926 19.6611 45.926 18.6638C45.926 17.6665 45.1155 16.858 44.1158 16.858C43.116 16.858 42.3056 17.6665 42.3056 18.6638C42.3056 19.6611 43.116 20.4696 44.1158 20.4696Z" fill="#272727"/>
<path d="M52.5775 20.4696C53.5773 20.4696 54.3877 19.6611 54.3877 18.6638C54.3877 17.6665 53.5773 16.858 52.5775 16.858C51.5778 16.858 50.7673 17.6665 50.7673 18.6638C50.7673 19.6611 51.5778 20.4696 52.5775 20.4696Z" fill="#272727"/>
<path d="M61.0393 20.4696C62.039 20.4696 62.8495 19.6611 62.8495 18.6638C62.8495 17.6665 62.039 16.858 61.0393 16.858C60.0396 16.858 59.2291 17.6665 59.2291 18.6638C59.2291 19.6611 60.0396 20.4696 61.0393 20.4696Z" fill="#272727"/>
<path d="M69.5 20.4696C70.4997 20.4696 71.3102 19.6611 71.3102 18.6638C71.3102 17.6665 70.4997 16.858 69.5 16.858C68.5003 16.858 67.6898 17.6665 67.6898 18.6638C67.6898 19.6611 68.5003 20.4696 69.5 20.4696Z" fill="#272727"/>
<path d="M77.9607 20.4696C78.9604 20.4696 79.7709 19.6611 79.7709 18.6638C79.7709 17.6665 78.9604 16.858 77.9607 16.858C76.961 16.858 76.1505 17.6665 76.1505 18.6638C76.1505 19.6611 76.961 20.4696 77.9607 20.4696Z" fill="#272727"/>
<path d="M86.4225 20.4696C87.4222 20.4696 88.2327 19.6611 88.2327 18.6638C88.2327 17.6665 87.4222 16.858 86.4225 16.858C85.4228 16.858 84.6123 17.6665 84.6123 18.6638C84.6123 19.6611 85.4228 20.4696 86.4225 20.4696Z" fill="#272727"/>
<path d="M94.8843 20.4696C95.884 20.4696 96.6945 19.6611 96.6945 18.6638C96.6945 17.6665 95.884 16.858 94.8843 16.858C93.8845 16.858 93.0741 17.6665 93.0741 18.6638C93.0741 19.6611 93.8845 20.4696 94.8843 20.4696Z" fill="#272727"/>
<path d="M103.345 20.4696C104.345 20.4696 105.155 19.6611 105.155 18.6638C105.155 17.6665 104.345 16.858 103.345 16.858C102.345 16.858 101.535 17.6665 101.535 18.6638C101.535 19.6611 102.345 20.4696 103.345 20.4696Z" fill="#272727"/>
<path d="M111.806 20.4696C112.805 20.4696 113.616 19.6611 113.616 18.6638C113.616 17.6665 112.805 16.858 111.806 16.858C110.806 16.858 109.995 17.6665 109.995 18.6638C109.995 19.6611 110.806 20.4696 111.806 20.4696Z" fill="#272727"/>
<path d="M120.267 20.4696C121.267 20.4696 122.078 19.6611 122.078 18.6638C122.078 17.6665 121.267 16.858 120.267 16.858C119.268 16.858 118.457 17.6665 118.457 18.6638C118.457 19.6611 119.268 20.4696 120.267 20.4696Z" fill="#272727"/>
<path d="M128.729 20.4696C129.729 20.4696 130.539 19.6611 130.539 18.6638C130.539 17.6665 129.729 16.858 128.729 16.858C127.729 16.858 126.919 17.6665 126.919 18.6638C126.919 19.6611 127.729 20.4696 128.729 20.4696Z" fill="#272727"/>
<path d="M137.19 20.4696C138.19 20.4696 139 19.6611 139 18.6638C139 17.6665 138.19 16.858 137.19 16.858C136.19 16.858 135.38 17.6665 135.38 18.6638C135.38 19.6611 136.19 20.4696 137.19 20.4696Z" fill="#272727"/>
<path d="M1.81018 28.4313C2.80992 28.4313 3.62036 27.6228 3.62036 26.6255C3.62036 25.6282 2.80992 24.8198 1.81018 24.8198C0.810446 24.8198 0 25.6282 0 26.6255C0 27.6228 0.810446 28.4313 1.81018 28.4313Z" fill="#272727"/>
<path d="M10.2709 28.4313C11.2706 28.4313 12.0811 27.6228 12.0811 26.6255C12.0811 25.6282 11.2706 24.8198 10.2709 24.8198C9.27114 24.8198 8.46069 25.6282 8.46069 26.6255C8.46069 27.6228 9.27114 28.4313 10.2709 28.4313Z" fill="#272727"/>
<path d="M18.7327 28.4313C19.7324 28.4313 20.5428 27.6228 20.5428 26.6255C20.5428 25.6282 19.7324 24.8198 18.7327 24.8198C17.7329 24.8198 16.9225 25.6282 16.9225 26.6255C16.9225 27.6228 17.7329 28.4313 18.7327 28.4313Z" fill="#272727"/>
<path d="M27.1944 28.4313C28.1941 28.4313 29.0046 27.6228 29.0046 26.6255C29.0046 25.6282 28.1941 24.8198 27.1944 24.8198C26.1947 24.8198 25.3842 25.6282 25.3842 26.6255C25.3842 27.6228 26.1947 28.4313 27.1944 28.4313Z" fill="#272727"/>
<path d="M35.6551 28.4313C36.6548 28.4313 37.4653 27.6228 37.4653 26.6255C37.4653 25.6282 36.6548 24.8198 35.6551 24.8198C34.6554 24.8198 33.8449 25.6282 33.8449 26.6255C33.8449 27.6228 34.6554 28.4313 35.6551 28.4313Z" fill="#272727"/>
<path d="M44.1158 28.4313C45.1155 28.4313 45.926 27.6228 45.926 26.6255C45.926 25.6282 45.1155 24.8198 44.1158 24.8198C43.116 24.8198 42.3056 25.6282 42.3056 26.6255C42.3056 27.6228 43.116 28.4313 44.1158 28.4313Z" fill="#272727"/>
<path d="M52.5775 28.4313C53.5773 28.4313 54.3877 27.6228 54.3877 26.6255C54.3877 25.6282 53.5773 24.8198 52.5775 24.8198C51.5778 24.8198 50.7673 25.6282 50.7673 26.6255C50.7673 27.6228 51.5778 28.4313 52.5775 28.4313Z" fill="#272727"/>
<path d="M61.0393 28.4313C62.039 28.4313 62.8495 27.6228 62.8495 26.6255C62.8495 25.6282 62.039 24.8198 61.0393 24.8198C60.0396 24.8198 59.2291 25.6282 59.2291 26.6255C59.2291 27.6228 60.0396 28.4313 61.0393 28.4313Z" fill="#272727"/>
<path d="M69.5 28.4313C70.4997 28.4313 71.3102 27.6228 71.3102 26.6255C71.3102 25.6282 70.4997 24.8198 69.5 24.8198C68.5003 24.8198 67.6898 25.6282 67.6898 26.6255C67.6898 27.6228 68.5003 28.4313 69.5 28.4313Z" fill="#272727"/>
<path d="M77.9607 28.4313C78.9604 28.4313 79.7709 27.6228 79.7709 26.6255C79.7709 25.6282 78.9604 24.8198 77.9607 24.8198C76.961 24.8198 76.1505 25.6282 76.1505 26.6255C76.1505 27.6228 76.961 28.4313 77.9607 28.4313Z" fill="#272727"/>
<path d="M86.4225 28.4313C87.4222 28.4313 88.2327 27.6228 88.2327 26.6255C88.2327 25.6282 87.4222 24.8198 86.4225 24.8198C85.4228 24.8198 84.6123 25.6282 84.6123 26.6255C84.6123 27.6228 85.4228 28.4313 86.4225 28.4313Z" fill="#272727"/>
<path d="M94.8843 28.4313C95.884 28.4313 96.6945 27.6228 96.6945 26.6255C96.6945 25.6282 95.884 24.8198 94.8843 24.8198C93.8845 24.8198 93.0741 25.6282 93.0741 26.6255C93.0741 27.6228 93.8845 28.4313 94.8843 28.4313Z" fill="#272727"/>
<path d="M103.345 28.4313C104.345 28.4313 105.155 27.6228 105.155 26.6255C105.155 25.6282 104.345 24.8198 103.345 24.8198C102.345 24.8198 101.535 25.6282 101.535 26.6255C101.535 27.6228 102.345 28.4313 103.345 28.4313Z" fill="#272727"/>
<path d="M111.806 28.4313C112.805 28.4313 113.616 27.6228 113.616 26.6255C113.616 25.6282 112.805 24.8198 111.806 24.8198C110.806 24.8198 109.995 25.6282 109.995 26.6255C109.995 27.6228 110.806 28.4313 111.806 28.4313Z" fill="#272727"/>
<path d="M120.267 28.4313C121.267 28.4313 122.078 27.6228 122.078 26.6255C122.078 25.6282 121.267 24.8198 120.267 24.8198C119.268 24.8198 118.457 25.6282 118.457 26.6255C118.457 27.6228 119.268 28.4313 120.267 28.4313Z" fill="#272727"/>
<path d="M128.729 28.4313C129.729 28.4313 130.539 27.6228 130.539 26.6255C130.539 25.6282 129.729 24.8198 128.729 24.8198C127.729 24.8198 126.919 25.6282 126.919 26.6255C126.919 27.6228 127.729 28.4313 128.729 28.4313Z" fill="#272727"/>
<path d="M137.19 28.4313C138.19 28.4313 139 27.6228 139 26.6255C139 25.6282 138.19 24.8198 137.19 24.8198C136.19 24.8198 135.38 25.6282 135.38 26.6255C135.38 27.6228 136.19 28.4313 137.19 28.4313Z" fill="#272727"/>
<path d="M1.81018 36.3931C2.80992 36.3931 3.62036 35.5846 3.62036 34.5873C3.62036 33.59 2.80992 32.7816 1.81018 32.7816C0.810446 32.7816 0 33.59 0 34.5873C0 35.5846 0.810446 36.3931 1.81018 36.3931Z" fill="#272727"/>
<path d="M10.2709 36.3931C11.2706 36.3931 12.0811 35.5846 12.0811 34.5873C12.0811 33.59 11.2706 32.7816 10.2709 32.7816C9.27114 32.7816 8.46069 33.59 8.46069 34.5873C8.46069 35.5846 9.27114 36.3931 10.2709 36.3931Z" fill="#272727"/>
<path d="M18.7327 36.3931C19.7324 36.3931 20.5428 35.5846 20.5428 34.5873C20.5428 33.59 19.7324 32.7816 18.7327 32.7816C17.7329 32.7816 16.9225 33.59 16.9225 34.5873C16.9225 35.5846 17.7329 36.3931 18.7327 36.3931Z" fill="#272727"/>
<path d="M27.1944 36.3931C28.1941 36.3931 29.0046 35.5846 29.0046 34.5873C29.0046 33.59 28.1941 32.7816 27.1944 32.7816C26.1947 32.7816 25.3842 33.59 25.3842 34.5873C25.3842 35.5846 26.1947 36.3931 27.1944 36.3931Z" fill="#272727"/>
<path d="M35.6551 36.3931C36.6548 36.3931 37.4653 35.5846 37.4653 34.5873C37.4653 33.59 36.6548 32.7816 35.6551 32.7816C34.6554 32.7816 33.8449 33.59 33.8449 34.5873C33.8449 35.5846 34.6554 36.3931 35.6551 36.3931Z" fill="#272727"/>
<path d="M44.1158 36.3931C45.1155 36.3931 45.926 35.5846 45.926 34.5873C45.926 33.59 45.1155 32.7816 44.1158 32.7816C43.116 32.7816 42.3056 33.59 42.3056 34.5873C42.3056 35.5846 43.116 36.3931 44.1158 36.3931Z" fill="#272727"/>
<path d="M52.5775 36.3931C53.5773 36.3931 54.3877 35.5846 54.3877 34.5873C54.3877 33.59 53.5773 32.7816 52.5775 32.7816C51.5778 32.7816 50.7673 33.59 50.7673 34.5873C50.7673 35.5846 51.5778 36.3931 52.5775 36.3931Z" fill="#272727"/>
<path d="M61.0393 36.3931C62.039 36.3931 62.8495 35.5846 62.8495 34.5873C62.8495 33.59 62.039 32.7816 61.0393 32.7816C60.0396 32.7816 59.2291 33.59 59.2291 34.5873C59.2291 35.5846 60.0396 36.3931 61.0393 36.3931Z" fill="#272727"/>
<path d="M69.5 36.3931C70.4997 36.3931 71.3102 35.5846 71.3102 34.5873C71.3102 33.59 70.4997 32.7816 69.5 32.7816C68.5003 32.7816 67.6898 33.59 67.6898 34.5873C67.6898 35.5846 68.5003 36.3931 69.5 36.3931Z" fill="#272727"/>
<path d="M77.9607 36.3931C78.9604 36.3931 79.7709 35.5846 79.7709 34.5873C79.7709 33.59 78.9604 32.7816 77.9607 32.7816C76.961 32.7816 76.1505 33.59 76.1505 34.5873C76.1505 35.5846 76.961 36.3931 77.9607 36.3931Z" fill="#272727"/>
<path d="M86.4225 36.3931C87.4222 36.3931 88.2327 35.5846 88.2327 34.5873C88.2327 33.59 87.4222 32.7816 86.4225 32.7816C85.4228 32.7816 84.6123 33.59 84.6123 34.5873C84.6123 35.5846 85.4228 36.3931 86.4225 36.3931Z" fill="#272727"/>
<path d="M94.8843 36.3931C95.884 36.3931 96.6945 35.5846 96.6945 34.5873C96.6945 33.59 95.884 32.7816 94.8843 32.7816C93.8845 32.7816 93.0741 33.59 93.0741 34.5873C93.0741 35.5846 93.8845 36.3931 94.8843 36.3931Z" fill="#272727"/>
<path d="M103.345 36.3931C104.345 36.3931 105.155 35.5846 105.155 34.5873C105.155 33.59 104.345 32.7816 103.345 32.7816C102.345 32.7816 101.535 33.59 101.535 34.5873C101.535 35.5846 102.345 36.3931 103.345 36.3931Z" fill="#272727"/>
<path d="M111.806 36.3931C112.805 36.3931 113.616 35.5846 113.616 34.5873C113.616 33.59 112.805 32.7816 111.806 32.7816C110.806 32.7816 109.995 33.59 109.995 34.5873C109.995 35.5846 110.806 36.3931 111.806 36.3931Z" fill="#272727"/>
<path d="M120.267 36.3931C121.267 36.3931 122.078 35.5846 122.078 34.5873C122.078 33.59 121.267 32.7816 120.267 32.7816C119.268 32.7816 118.457 33.59 118.457 34.5873C118.457 35.5846 119.268 36.3931 120.267 36.3931Z" fill="#272727"/>
<path d="M128.729 36.3931C129.729 36.3931 130.539 35.5846 130.539 34.5873C130.539 33.59 129.729 32.7816 128.729 32.7816C127.729 32.7816 126.919 33.59 126.919 34.5873C126.919 35.5846 127.729 36.3931 128.729 36.3931Z" fill="#272727"/>
<path d="M137.19 36.3931C138.19 36.3931 139 35.5846 139 34.5873C139 33.59 138.19 32.7816 137.19 32.7816C136.19 32.7816 135.38 33.59 135.38 34.5873C135.38 35.5846 136.19 36.3931 137.19 36.3931Z" fill="#272727"/>
<path d="M1.81018 44.3549C2.80992 44.3549 3.62036 43.5464 3.62036 42.5491C3.62036 41.5518 2.80992 40.7433 1.81018 40.7433C0.810446 40.7433 0 41.5518 0 42.5491C0 43.5464 0.810446 44.3549 1.81018 44.3549Z" fill="#272727"/>
<path d="M10.2709 44.3549C11.2706 44.3549 12.0811 43.5464 12.0811 42.5491C12.0811 41.5518 11.2706 40.7433 10.2709 40.7433C9.27114 40.7433 8.46069 41.5518 8.46069 42.5491C8.46069 43.5464 9.27114 44.3549 10.2709 44.3549Z" fill="#272727"/>
<path d="M18.7327 44.3549C19.7324 44.3549 20.5428 43.5464 20.5428 42.5491C20.5428 41.5518 19.7324 40.7433 18.7327 40.7433C17.7329 40.7433 16.9225 41.5518 16.9225 42.5491C16.9225 43.5464 17.7329 44.3549 18.7327 44.3549Z" fill="#272727"/>
<path d="M27.1944 44.3549C28.1941 44.3549 29.0046 43.5464 29.0046 42.5491C29.0046 41.5518 28.1941 40.7433 27.1944 40.7433C26.1947 40.7433 25.3842 41.5518 25.3842 42.5491C25.3842 43.5464 26.1947 44.3549 27.1944 44.3549Z" fill="#272727"/>
<path d="M35.6551 44.3549C36.6548 44.3549 37.4653 43.5464 37.4653 42.5491C37.4653 41.5518 36.6548 40.7433 35.6551 40.7433C34.6554 40.7433 33.8449 41.5518 33.8449 42.5491C33.8449 43.5464 34.6554 44.3549 35.6551 44.3549Z" fill="#272727"/>
<path d="M44.1158 44.3549C45.1155 44.3549 45.926 43.5464 45.926 42.5491C45.926 41.5518 45.1155 40.7433 44.1158 40.7433C43.116 40.7433 42.3056 41.5518 42.3056 42.5491C42.3056 43.5464 43.116 44.3549 44.1158 44.3549Z" fill="#272727"/>
<path d="M52.5775 44.3549C53.5773 44.3549 54.3877 43.5464 54.3877 42.5491C54.3877 41.5518 53.5773 40.7433 52.5775 40.7433C51.5778 40.7433 50.7673 41.5518 50.7673 42.5491C50.7673 43.5464 51.5778 44.3549 52.5775 44.3549Z" fill="#272727"/>
<path d="M61.0393 44.3549C62.039 44.3549 62.8495 43.5464 62.8495 42.5491C62.8495 41.5518 62.039 40.7433 61.0393 40.7433C60.0396 40.7433 59.2291 41.5518 59.2291 42.5491C59.2291 43.5464 60.0396 44.3549 61.0393 44.3549Z" fill="#272727"/>
<path d="M69.5 44.3549C70.4997 44.3549 71.3102 43.5464 71.3102 42.5491C71.3102 41.5518 70.4997 40.7433 69.5 40.7433C68.5003 40.7433 67.6898 41.5518 67.6898 42.5491C67.6898 43.5464 68.5003 44.3549 69.5 44.3549Z" fill="#272727"/>
<path d="M77.9607 44.3549C78.9604 44.3549 79.7709 43.5464 79.7709 42.5491C79.7709 41.5518 78.9604 40.7433 77.9607 40.7433C76.961 40.7433 76.1505 41.5518 76.1505 42.5491C76.1505 43.5464 76.961 44.3549 77.9607 44.3549Z" fill="#272727"/>
<path d="M86.4225 44.3549C87.4222 44.3549 88.2327 43.5464 88.2327 42.5491C88.2327 41.5518 87.4222 40.7433 86.4225 40.7433C85.4228 40.7433 84.6123 41.5518 84.6123 42.5491C84.6123 43.5464 85.4228 44.3549 86.4225 44.3549Z" fill="#272727"/>
<path d="M94.8843 44.3549C95.884 44.3549 96.6945 43.5464 96.6945 42.5491C96.6945 41.5518 95.884 40.7433 94.8843 40.7433C93.8845 40.7433 93.0741 41.5518 93.0741 42.5491C93.0741 43.5464 93.8845 44.3549 94.8843 44.3549Z" fill="#272727"/>
<path d="M103.345 44.3549C104.345 44.3549 105.155 43.5464 105.155 42.5491C105.155 41.5518 104.345 40.7433 103.345 40.7433C102.345 40.7433 101.535 41.5518 101.535 42.5491C101.535 43.5464 102.345 44.3549 103.345 44.3549Z" fill="#272727"/>
<path d="M111.806 44.3549C112.805 44.3549 113.616 43.5464 113.616 42.5491C113.616 41.5518 112.805 40.7433 111.806 40.7433C110.806 40.7433 109.995 41.5518 109.995 42.5491C109.995 43.5464 110.806 44.3549 111.806 44.3549Z" fill="#272727"/>
<path d="M120.267 44.3549C121.267 44.3549 122.078 43.5464 122.078 42.5491C122.078 41.5518 121.267 40.7433 120.267 40.7433C119.268 40.7433 118.457 41.5518 118.457 42.5491C118.457 43.5464 119.268 44.3549 120.267 44.3549Z" fill="#272727"/>
<path d="M128.729 44.3549C129.729 44.3549 130.539 43.5464 130.539 42.5491C130.539 41.5518 129.729 40.7433 128.729 40.7433C127.729 40.7433 126.919 41.5518 126.919 42.5491C126.919 43.5464 127.729 44.3549 128.729 44.3549Z" fill="#272727"/>
<path d="M137.19 44.3549C138.19 44.3549 139 43.5464 139 42.5491C139 41.5518 138.19 40.7433 137.19 40.7433C136.19 40.7433 135.38 41.5518 135.38 42.5491C135.38 43.5464 136.19 44.3549 137.19 44.3549Z" fill="#272727"/>
<path d="M1.81018 52.3167C2.80992 52.3167 3.62036 51.5082 3.62036 50.5109C3.62036 49.5136 2.80992 48.7051 1.81018 48.7051C0.810446 48.7051 0 49.5136 0 50.5109C0 51.5082 0.810446 52.3167 1.81018 52.3167Z" fill="#272727"/>
<path d="M10.2709 52.3167C11.2706 52.3167 12.0811 51.5082 12.0811 50.5109C12.0811 49.5136 11.2706 48.7051 10.2709 48.7051C9.27114 48.7051 8.46069 49.5136 8.46069 50.5109C8.46069 51.5082 9.27114 52.3167 10.2709 52.3167Z" fill="#272727"/>
<path d="M18.7327 52.3167C19.7324 52.3167 20.5428 51.5082 20.5428 50.5109C20.5428 49.5136 19.7324 48.7051 18.7327 48.7051C17.7329 48.7051 16.9225 49.5136 16.9225 50.5109C16.9225 51.5082 17.7329 52.3167 18.7327 52.3167Z" fill="#272727"/>
<path d="M27.1944 52.3167C28.1941 52.3167 29.0046 51.5082 29.0046 50.5109C29.0046 49.5136 28.1941 48.7051 27.1944 48.7051C26.1947 48.7051 25.3842 49.5136 25.3842 50.5109C25.3842 51.5082 26.1947 52.3167 27.1944 52.3167Z" fill="#272727"/>
<path d="M35.6551 52.3167C36.6548 52.3167 37.4653 51.5082 37.4653 50.5109C37.4653 49.5136 36.6548 48.7051 35.6551 48.7051C34.6554 48.7051 33.8449 49.5136 33.8449 50.5109C33.8449 51.5082 34.6554 52.3167 35.6551 52.3167Z" fill="#272727"/>
<path d="M44.1158 52.3167C45.1155 52.3167 45.926 51.5082 45.926 50.5109C45.926 49.5136 45.1155 48.7051 44.1158 48.7051C43.116 48.7051 42.3056 49.5136 42.3056 50.5109C42.3056 51.5082 43.116 52.3167 44.1158 52.3167Z" fill="#272727"/>
<path d="M52.5775 52.3167C53.5773 52.3167 54.3877 51.5082 54.3877 50.5109C54.3877 49.5136 53.5773 48.7051 52.5775 48.7051C51.5778 48.7051 50.7673 49.5136 50.7673 50.5109C50.7673 51.5082 51.5778 52.3167 52.5775 52.3167Z" fill="#272727"/>
<path d="M61.0393 52.3167C62.039 52.3167 62.8495 51.5082 62.8495 50.5109C62.8495 49.5136 62.039 48.7051 61.0393 48.7051C60.0396 48.7051 59.2291 49.5136 59.2291 50.5109C59.2291 51.5082 60.0396 52.3167 61.0393 52.3167Z" fill="#272727"/>
<path d="M69.5 52.3167C70.4997 52.3167 71.3102 51.5082 71.3102 50.5109C71.3102 49.5136 70.4997 48.7051 69.5 48.7051C68.5003 48.7051 67.6898 49.5136 67.6898 50.5109C67.6898 51.5082 68.5003 52.3167 69.5 52.3167Z" fill="#272727"/>
<path d="M77.9607 52.3167C78.9604 52.3167 79.7709 51.5082 79.7709 50.5109C79.7709 49.5136 78.9604 48.7051 77.9607 48.7051C76.961 48.7051 76.1505 49.5136 76.1505 50.5109C76.1505 51.5082 76.961 52.3167 77.9607 52.3167Z" fill="#272727"/>
<path d="M86.4225 52.3167C87.4222 52.3167 88.2327 51.5082 88.2327 50.5109C88.2327 49.5136 87.4222 48.7051 86.4225 48.7051C85.4228 48.7051 84.6123 49.5136 84.6123 50.5109C84.6123 51.5082 85.4228 52.3167 86.4225 52.3167Z" fill="#272727"/>
<path d="M94.8843 52.3167C95.884 52.3167 96.6945 51.5082 96.6945 50.5109C96.6945 49.5136 95.884 48.7051 94.8843 48.7051C93.8845 48.7051 93.0741 49.5136 93.0741 50.5109C93.0741 51.5082 93.8845 52.3167 94.8843 52.3167Z" fill="#272727"/>
<path d="M103.345 52.3167C104.345 52.3167 105.155 51.5082 105.155 50.5109C105.155 49.5136 104.345 48.7051 103.345 48.7051C102.345 48.7051 101.535 49.5136 101.535 50.5109C101.535 51.5082 102.345 52.3167 103.345 52.3167Z" fill="#272727"/>
<path d="M111.806 52.3167C112.805 52.3167 113.616 51.5082 113.616 50.5109C113.616 49.5136 112.805 48.7051 111.806 48.7051C110.806 48.7051 109.995 49.5136 109.995 50.5109C109.995 51.5082 110.806 52.3167 111.806 52.3167Z" fill="#272727"/>
<path d="M120.267 52.3167C121.267 52.3167 122.078 51.5082 122.078 50.5109C122.078 49.5136 121.267 48.7051 120.267 48.7051C119.268 48.7051 118.457 49.5136 118.457 50.5109C118.457 51.5082 119.268 52.3167 120.267 52.3167Z" fill="#272727"/>
<path d="M128.729 52.3167C129.729 52.3167 130.539 51.5082 130.539 50.5109C130.539 49.5136 129.729 48.7051 128.729 48.7051C127.729 48.7051 126.919 49.5136 126.919 50.5109C126.919 51.5082 127.729 52.3167 128.729 52.3167Z" fill="#272727"/>
<path d="M137.19 52.3167C138.19 52.3167 139 51.5082 139 50.5109C139 49.5136 138.19 48.7051 137.19 48.7051C136.19 48.7051 135.38 49.5136 135.38 50.5109C135.38 51.5082 136.19 52.3167 137.19 52.3167Z" fill="#272727"/>
<path d="M1.81018 60.2785C2.80992 60.2785 3.62036 59.47 3.62036 58.4727C3.62036 57.4754 2.80992 56.6669 1.81018 56.6669C0.810446 56.6669 0 57.4754 0 58.4727C0 59.47 0.810446 60.2785 1.81018 60.2785Z" fill="#272727"/>
<path d="M10.2709 60.2785C11.2706 60.2785 12.0811 59.47 12.0811 58.4727C12.0811 57.4754 11.2706 56.6669 10.2709 56.6669C9.27114 56.6669 8.46069 57.4754 8.46069 58.4727C8.46069 59.47 9.27114 60.2785 10.2709 60.2785Z" fill="#272727"/>
<path d="M18.7327 60.2785C19.7324 60.2785 20.5428 59.47 20.5428 58.4727C20.5428 57.4754 19.7324 56.6669 18.7327 56.6669C17.7329 56.6669 16.9225 57.4754 16.9225 58.4727C16.9225 59.47 17.7329 60.2785 18.7327 60.2785Z" fill="#272727"/>
<path d="M27.1944 60.2785C28.1941 60.2785 29.0046 59.47 29.0046 58.4727C29.0046 57.4754 28.1941 56.6669 27.1944 56.6669C26.1947 56.6669 25.3842 57.4754 25.3842 58.4727C25.3842 59.47 26.1947 60.2785 27.1944 60.2785Z" fill="#272727"/>
<path d="M35.6551 60.2785C36.6548 60.2785 37.4653 59.47 37.4653 58.4727C37.4653 57.4754 36.6548 56.6669 35.6551 56.6669C34.6554 56.6669 33.8449 57.4754 33.8449 58.4727C33.8449 59.47 34.6554 60.2785 35.6551 60.2785Z" fill="#272727"/>
<path d="M44.1158 60.2785C45.1155 60.2785 45.926 59.47 45.926 58.4727C45.926 57.4754 45.1155 56.6669 44.1158 56.6669C43.116 56.6669 42.3056 57.4754 42.3056 58.4727C42.3056 59.47 43.116 60.2785 44.1158 60.2785Z" fill="#272727"/>
<path d="M52.5775 60.2785C53.5773 60.2785 54.3877 59.47 54.3877 58.4727C54.3877 57.4754 53.5773 56.6669 52.5775 56.6669C51.5778 56.6669 50.7673 57.4754 50.7673 58.4727C50.7673 59.47 51.5778 60.2785 52.5775 60.2785Z" fill="#272727"/>
<path d="M61.0393 60.2785C62.039 60.2785 62.8495 59.47 62.8495 58.4727C62.8495 57.4754 62.039 56.6669 61.0393 56.6669C60.0396 56.6669 59.2291 57.4754 59.2291 58.4727C59.2291 59.47 60.0396 60.2785 61.0393 60.2785Z" fill="#272727"/>
<path d="M69.5 60.2785C70.4997 60.2785 71.3102 59.47 71.3102 58.4727C71.3102 57.4754 70.4997 56.6669 69.5 56.6669C68.5003 56.6669 67.6898 57.4754 67.6898 58.4727C67.6898 59.47 68.5003 60.2785 69.5 60.2785Z" fill="#272727"/>
<path d="M77.9607 60.2785C78.9604 60.2785 79.7709 59.47 79.7709 58.4727C79.7709 57.4754 78.9604 56.6669 77.9607 56.6669C76.961 56.6669 76.1505 57.4754 76.1505 58.4727C76.1505 59.47 76.961 60.2785 77.9607 60.2785Z" fill="#272727"/>
<path d="M86.4225 60.2785C87.4222 60.2785 88.2327 59.47 88.2327 58.4727C88.2327 57.4754 87.4222 56.6669 86.4225 56.6669C85.4228 56.6669 84.6123 57.4754 84.6123 58.4727C84.6123 59.47 85.4228 60.2785 86.4225 60.2785Z" fill="#272727"/>
<path d="M94.8843 60.2785C95.884 60.2785 96.6945 59.47 96.6945 58.4727C96.6945 57.4754 95.884 56.6669 94.8843 56.6669C93.8845 56.6669 93.0741 57.4754 93.0741 58.4727C93.0741 59.47 93.8845 60.2785 94.8843 60.2785Z" fill="#272727"/>
<path d="M103.345 60.2785C104.345 60.2785 105.155 59.47 105.155 58.4727C105.155 57.4754 104.345 56.6669 103.345 56.6669C102.345 56.6669 101.535 57.4754 101.535 58.4727C101.535 59.47 102.345 60.2785 103.345 60.2785Z" fill="#272727"/>
<path d="M111.806 60.2785C112.805 60.2785 113.616 59.47 113.616 58.4727C113.616 57.4754 112.805 56.6669 111.806 56.6669C110.806 56.6669 109.995 57.4754 109.995 58.4727C109.995 59.47 110.806 60.2785 111.806 60.2785Z" fill="#272727"/>
<path d="M120.267 60.2785C121.267 60.2785 122.078 59.47 122.078 58.4727C122.078 57.4754 121.267 56.6669 120.267 56.6669C119.268 56.6669 118.457 57.4754 118.457 58.4727C118.457 59.47 119.268 60.2785 120.267 60.2785Z" fill="#272727"/>
<path d="M128.729 60.2785C129.729 60.2785 130.539 59.47 130.539 58.4727C130.539 57.4754 129.729 56.6669 128.729 56.6669C127.729 56.6669 126.919 57.4754 126.919 58.4727C126.919 59.47 127.729 60.2785 128.729 60.2785Z" fill="#272727"/>
<path d="M137.19 60.2785C138.19 60.2785 139 59.47 139 58.4727C139 57.4754 138.19 56.6669 137.19 56.6669C136.19 56.6669 135.38 57.4754 135.38 58.4727C135.38 59.47 136.19 60.2785 137.19 60.2785Z" fill="#272727"/>
<path d="M1.81018 68.2402C2.80992 68.2402 3.62036 67.4317 3.62036 66.4344C3.62036 65.4371 2.80992 64.6287 1.81018 64.6287C0.810446 64.6287 0 65.4371 0 66.4344C0 67.4317 0.810446 68.2402 1.81018 68.2402Z" fill="#272727"/>
<path d="M10.2709 68.2402C11.2706 68.2402 12.0811 67.4317 12.0811 66.4344C12.0811 65.4371 11.2706 64.6287 10.2709 64.6287C9.27114 64.6287 8.46069 65.4371 8.46069 66.4344C8.46069 67.4317 9.27114 68.2402 10.2709 68.2402Z" fill="#272727"/>
<path d="M18.7327 68.2402C19.7324 68.2402 20.5428 67.4317 20.5428 66.4344C20.5428 65.4371 19.7324 64.6287 18.7327 64.6287C17.7329 64.6287 16.9225 65.4371 16.9225 66.4344C16.9225 67.4317 17.7329 68.2402 18.7327 68.2402Z" fill="#272727"/>
<path d="M27.1944 68.2402C28.1941 68.2402 29.0046 67.4317 29.0046 66.4344C29.0046 65.4371 28.1941 64.6287 27.1944 64.6287C26.1947 64.6287 25.3842 65.4371 25.3842 66.4344C25.3842 67.4317 26.1947 68.2402 27.1944 68.2402Z" fill="#272727"/>
<path d="M35.6551 68.2402C36.6548 68.2402 37.4653 67.4317 37.4653 66.4344C37.4653 65.4371 36.6548 64.6287 35.6551 64.6287C34.6554 64.6287 33.8449 65.4371 33.8449 66.4344C33.8449 67.4317 34.6554 68.2402 35.6551 68.2402Z" fill="#272727"/>
<path d="M44.1158 68.2402C45.1155 68.2402 45.926 67.4317 45.926 66.4344C45.926 65.4371 45.1155 64.6287 44.1158 64.6287C43.116 64.6287 42.3056 65.4371 42.3056 66.4344C42.3056 67.4317 43.116 68.2402 44.1158 68.2402Z" fill="#272727"/>
<path d="M52.5775 68.2402C53.5773 68.2402 54.3877 67.4317 54.3877 66.4344C54.3877 65.4371 53.5773 64.6287 52.5775 64.6287C51.5778 64.6287 50.7673 65.4371 50.7673 66.4344C50.7673 67.4317 51.5778 68.2402 52.5775 68.2402Z" fill="#272727"/>
<path d="M61.0393 68.2402C62.039 68.2402 62.8495 67.4317 62.8495 66.4344C62.8495 65.4371 62.039 64.6287 61.0393 64.6287C60.0396 64.6287 59.2291 65.4371 59.2291 66.4344C59.2291 67.4317 60.0396 68.2402 61.0393 68.2402Z" fill="#272727"/>
<path d="M69.5 68.2402C70.4997 68.2402 71.3102 67.4317 71.3102 66.4344C71.3102 65.4371 70.4997 64.6287 69.5 64.6287C68.5003 64.6287 67.6898 65.4371 67.6898 66.4344C67.6898 67.4317 68.5003 68.2402 69.5 68.2402Z" fill="#272727"/>
<path d="M77.9607 68.2402C78.9604 68.2402 79.7709 67.4317 79.7709 66.4344C79.7709 65.4371 78.9604 64.6287 77.9607 64.6287C76.961 64.6287 76.1505 65.4371 76.1505 66.4344C76.1505 67.4317 76.961 68.2402 77.9607 68.2402Z" fill="#272727"/>
<path d="M86.4225 68.2402C87.4222 68.2402 88.2327 67.4317 88.2327 66.4344C88.2327 65.4371 87.4222 64.6287 86.4225 64.6287C85.4228 64.6287 84.6123 65.4371 84.6123 66.4344C84.6123 67.4317 85.4228 68.2402 86.4225 68.2402Z" fill="#272727"/>
<path d="M94.8843 68.2402C95.884 68.2402 96.6945 67.4317 96.6945 66.4344C96.6945 65.4371 95.884 64.6287 94.8843 64.6287C93.8845 64.6287 93.0741 65.4371 93.0741 66.4344C93.0741 67.4317 93.8845 68.2402 94.8843 68.2402Z" fill="#272727"/>
<path d="M103.345 68.2402C104.345 68.2402 105.155 67.4317 105.155 66.4344C105.155 65.4371 104.345 64.6287 103.345 64.6287C102.345 64.6287 101.535 65.4371 101.535 66.4344C101.535 67.4317 102.345 68.2402 103.345 68.2402Z" fill="#272727"/>
<path d="M111.806 68.2402C112.805 68.2402 113.616 67.4317 113.616 66.4344C113.616 65.4371 112.805 64.6287 111.806 64.6287C110.806 64.6287 109.995 65.4371 109.995 66.4344C109.995 67.4317 110.806 68.2402 111.806 68.2402Z" fill="#272727"/>
<path d="M120.267 68.2402C121.267 68.2402 122.078 67.4317 122.078 66.4344C122.078 65.4371 121.267 64.6287 120.267 64.6287C119.268 64.6287 118.457 65.4371 118.457 66.4344C118.457 67.4317 119.268 68.2402 120.267 68.2402Z" fill="#272727"/>
<path d="M128.729 68.2402C129.729 68.2402 130.539 67.4317 130.539 66.4344C130.539 65.4371 129.729 64.6287 128.729 64.6287C127.729 64.6287 126.919 65.4371 126.919 66.4344C126.919 67.4317 127.729 68.2402 128.729 68.2402Z" fill="#272727"/>
<path d="M137.19 68.2402C138.19 68.2402 139 67.4317 139 66.4344C139 65.4371 138.19 64.6287 137.19 64.6287C136.19 64.6287 135.38 65.4371 135.38 66.4344C135.38 67.4317 136.19 68.2402 137.19 68.2402Z" fill="#272727"/>
<path d="M1.81018 76.202C2.80992 76.202 3.62036 75.3935 3.62036 74.3962C3.62036 73.3989 2.80992 72.5905 1.81018 72.5905C0.810446 72.5905 0 73.3989 0 74.3962C0 75.3935 0.810446 76.202 1.81018 76.202Z" fill="#272727"/>
<path d="M10.2709 76.202C11.2706 76.202 12.0811 75.3935 12.0811 74.3962C12.0811 73.3989 11.2706 72.5905 10.2709 72.5905C9.27114 72.5905 8.46069 73.3989 8.46069 74.3962C8.46069 75.3935 9.27114 76.202 10.2709 76.202Z" fill="#272727"/>
<path d="M18.7327 76.202C19.7324 76.202 20.5428 75.3935 20.5428 74.3962C20.5428 73.3989 19.7324 72.5905 18.7327 72.5905C17.7329 72.5905 16.9225 73.3989 16.9225 74.3962C16.9225 75.3935 17.7329 76.202 18.7327 76.202Z" fill="#272727"/>
<path d="M27.1944 76.202C28.1941 76.202 29.0046 75.3935 29.0046 74.3962C29.0046 73.3989 28.1941 72.5905 27.1944 72.5905C26.1947 72.5905 25.3842 73.3989 25.3842 74.3962C25.3842 75.3935 26.1947 76.202 27.1944 76.202Z" fill="#272727"/>
<path d="M35.6551 76.202C36.6548 76.202 37.4653 75.3935 37.4653 74.3962C37.4653 73.3989 36.6548 72.5905 35.6551 72.5905C34.6554 72.5905 33.8449 73.3989 33.8449 74.3962C33.8449 75.3935 34.6554 76.202 35.6551 76.202Z" fill="#272727"/>
<path d="M44.1158 76.202C45.1155 76.202 45.926 75.3935 45.926 74.3962C45.926 73.3989 45.1155 72.5905 44.1158 72.5905C43.116 72.5905 42.3056 73.3989 42.3056 74.3962C42.3056 75.3935 43.116 76.202 44.1158 76.202Z" fill="#272727"/>
<path d="M52.5775 76.202C53.5773 76.202 54.3877 75.3935 54.3877 74.3962C54.3877 73.3989 53.5773 72.5905 52.5775 72.5905C51.5778 72.5905 50.7673 73.3989 50.7673 74.3962C50.7673 75.3935 51.5778 76.202 52.5775 76.202Z" fill="#272727"/>
<path d="M61.0393 76.202C62.039 76.202 62.8495 75.3935 62.8495 74.3962C62.8495 73.3989 62.039 72.5905 61.0393 72.5905C60.0396 72.5905 59.2291 73.3989 59.2291 74.3962C59.2291 75.3935 60.0396 76.202 61.0393 76.202Z" fill="#272727"/>
<path d="M69.5 76.202C70.4997 76.202 71.3102 75.3935 71.3102 74.3962C71.3102 73.3989 70.4997 72.5905 69.5 72.5905C68.5003 72.5905 67.6898 73.3989 67.6898 74.3962C67.6898 75.3935 68.5003 76.202 69.5 76.202Z" fill="#272727"/>
<path d="M77.9607 76.202C78.9604 76.202 79.7709 75.3935 79.7709 74.3962C79.7709 73.3989 78.9604 72.5905 77.9607 72.5905C76.961 72.5905 76.1505 73.3989 76.1505 74.3962C76.1505 75.3935 76.961 76.202 77.9607 76.202Z" fill="#272727"/>
<path d="M86.4225 76.202C87.4222 76.202 88.2327 75.3935 88.2327 74.3962C88.2327 73.3989 87.4222 72.5905 86.4225 72.5905C85.4228 72.5905 84.6123 73.3989 84.6123 74.3962C84.6123 75.3935 85.4228 76.202 86.4225 76.202Z" fill="#272727"/>
<path d="M94.8843 76.202C95.884 76.202 96.6945 75.3935 96.6945 74.3962C96.6945 73.3989 95.884 72.5905 94.8843 72.5905C93.8845 72.5905 93.0741 73.3989 93.0741 74.3962C93.0741 75.3935 93.8845 76.202 94.8843 76.202Z" fill="#272727"/>
<path d="M103.345 76.202C104.345 76.202 105.155 75.3935 105.155 74.3962C105.155 73.3989 104.345 72.5905 103.345 72.5905C102.345 72.5905 101.535 73.3989 101.535 74.3962C101.535 75.3935 102.345 76.202 103.345 76.202Z" fill="#272727"/>
<path d="M111.806 76.202C112.805 76.202 113.616 75.3935 113.616 74.3962C113.616 73.3989 112.805 72.5905 111.806 72.5905C110.806 72.5905 109.995 73.3989 109.995 74.3962C109.995 75.3935 110.806 76.202 111.806 76.202Z" fill="#272727"/>
<path d="M120.267 76.202C121.267 76.202 122.078 75.3935 122.078 74.3962C122.078 73.3989 121.267 72.5905 120.267 72.5905C119.268 72.5905 118.457 73.3989 118.457 74.3962C118.457 75.3935 119.268 76.202 120.267 76.202Z" fill="#272727"/>
<path d="M128.729 76.202C129.729 76.202 130.539 75.3935 130.539 74.3962C130.539 73.3989 129.729 72.5905 128.729 72.5905C127.729 72.5905 126.919 73.3989 126.919 74.3962C126.919 75.3935 127.729 76.202 128.729 76.202Z" fill="#272727"/>
<path d="M137.19 76.202C138.19 76.202 139 75.3935 139 74.3962C139 73.3989 138.19 72.5905 137.19 72.5905C136.19 72.5905 135.38 73.3989 135.38 74.3962C135.38 75.3935 136.19 76.202 137.19 76.202Z" fill="#272727"/>
<path d="M1.81018 84.1638C2.80992 84.1638 3.62036 83.3553 3.62036 82.358C3.62036 81.3607 2.80992 80.5522 1.81018 80.5522C0.810446 80.5522 0 81.3607 0 82.358C0 83.3553 0.810446 84.1638 1.81018 84.1638Z" fill="#272727"/>
<path d="M10.2709 84.1638C11.2706 84.1638 12.0811 83.3553 12.0811 82.358C12.0811 81.3607 11.2706 80.5522 10.2709 80.5522C9.27114 80.5522 8.46069 81.3607 8.46069 82.358C8.46069 83.3553 9.27114 84.1638 10.2709 84.1638Z" fill="#272727"/>
<path d="M18.7327 84.1638C19.7324 84.1638 20.5428 83.3553 20.5428 82.358C20.5428 81.3607 19.7324 80.5522 18.7327 80.5522C17.7329 80.5522 16.9225 81.3607 16.9225 82.358C16.9225 83.3553 17.7329 84.1638 18.7327 84.1638Z" fill="#272727"/>
<path d="M27.1944 84.1638C28.1941 84.1638 29.0046 83.3553 29.0046 82.358C29.0046 81.3607 28.1941 80.5522 27.1944 80.5522C26.1947 80.5522 25.3842 81.3607 25.3842 82.358C25.3842 83.3553 26.1947 84.1638 27.1944 84.1638Z" fill="#272727"/>
<path d="M35.6551 84.1638C36.6548 84.1638 37.4653 83.3553 37.4653 82.358C37.4653 81.3607 36.6548 80.5522 35.6551 80.5522C34.6554 80.5522 33.8449 81.3607 33.8449 82.358C33.8449 83.3553 34.6554 84.1638 35.6551 84.1638Z" fill="#272727"/>
<path d="M44.1158 84.1638C45.1155 84.1638 45.926 83.3553 45.926 82.358C45.926 81.3607 45.1155 80.5522 44.1158 80.5522C43.116 80.5522 42.3056 81.3607 42.3056 82.358C42.3056 83.3553 43.116 84.1638 44.1158 84.1638Z" fill="#272727"/>
<path d="M52.5775 84.1638C53.5773 84.1638 54.3877 83.3553 54.3877 82.358C54.3877 81.3607 53.5773 80.5522 52.5775 80.5522C51.5778 80.5522 50.7673 81.3607 50.7673 82.358C50.7673 83.3553 51.5778 84.1638 52.5775 84.1638Z" fill="#272727"/>
<path d="M61.0393 84.1638C62.039 84.1638 62.8495 83.3553 62.8495 82.358C62.8495 81.3607 62.039 80.5522 61.0393 80.5522C60.0396 80.5522 59.2291 81.3607 59.2291 82.358C59.2291 83.3553 60.0396 84.1638 61.0393 84.1638Z" fill="#272727"/>
<path d="M69.5 84.1638C70.4997 84.1638 71.3102 83.3553 71.3102 82.358C71.3102 81.3607 70.4997 80.5522 69.5 80.5522C68.5003 80.5522 67.6898 81.3607 67.6898 82.358C67.6898 83.3553 68.5003 84.1638 69.5 84.1638Z" fill="#272727"/>
<path d="M77.9607 84.1638C78.9604 84.1638 79.7709 83.3553 79.7709 82.358C79.7709 81.3607 78.9604 80.5522 77.9607 80.5522C76.961 80.5522 76.1505 81.3607 76.1505 82.358C76.1505 83.3553 76.961 84.1638 77.9607 84.1638Z" fill="#272727"/>
<path d="M86.4225 84.1638C87.4222 84.1638 88.2327 83.3553 88.2327 82.358C88.2327 81.3607 87.4222 80.5522 86.4225 80.5522C85.4228 80.5522 84.6123 81.3607 84.6123 82.358C84.6123 83.3553 85.4228 84.1638 86.4225 84.1638Z" fill="#272727"/>
<path d="M94.8843 84.1638C95.884 84.1638 96.6945 83.3553 96.6945 82.358C96.6945 81.3607 95.884 80.5522 94.8843 80.5522C93.8845 80.5522 93.0741 81.3607 93.0741 82.358C93.0741 83.3553 93.8845 84.1638 94.8843 84.1638Z" fill="#272727"/>
<path d="M103.345 84.1638C104.345 84.1638 105.155 83.3553 105.155 82.358C105.155 81.3607 104.345 80.5522 103.345 80.5522C102.345 80.5522 101.535 81.3607 101.535 82.358C101.535 83.3553 102.345 84.1638 103.345 84.1638Z" fill="#272727"/>
<path d="M111.806 84.1638C112.805 84.1638 113.616 83.3553 113.616 82.358C113.616 81.3607 112.805 80.5522 111.806 80.5522C110.806 80.5522 109.995 81.3607 109.995 82.358C109.995 83.3553 110.806 84.1638 111.806 84.1638Z" fill="#272727"/>
<path d="M120.267 84.1638C121.267 84.1638 122.078 83.3553 122.078 82.358C122.078 81.3607 121.267 80.5522 120.267 80.5522C119.268 80.5522 118.457 81.3607 118.457 82.358C118.457 83.3553 119.268 84.1638 120.267 84.1638Z" fill="#272727"/>
<path d="M128.729 84.1638C129.729 84.1638 130.539 83.3553 130.539 82.358C130.539 81.3607 129.729 80.5522 128.729 80.5522C127.729 80.5522 126.919 81.3607 126.919 82.358C126.919 83.3553 127.729 84.1638 128.729 84.1638Z" fill="#272727"/>
<path d="M137.19 84.1638C138.19 84.1638 139 83.3553 139 82.358C139 81.3607 138.19 80.5522 137.19 80.5522C136.19 80.5522 135.38 81.3607 135.38 82.358C135.38 83.3553 136.19 84.1638 137.19 84.1638Z" fill="#272727"/>
<path d="M1.81018 92.1256C2.80992 92.1256 3.62036 91.3171 3.62036 90.3198C3.62036 89.3225 2.80992 88.514 1.81018 88.514C0.810446 88.514 0 89.3225 0 90.3198C0 91.3171 0.810446 92.1256 1.81018 92.1256Z" fill="#272727"/>
<path d="M10.2709 92.1256C11.2706 92.1256 12.0811 91.3171 12.0811 90.3198C12.0811 89.3225 11.2706 88.514 10.2709 88.514C9.27114 88.514 8.46069 89.3225 8.46069 90.3198C8.46069 91.3171 9.27114 92.1256 10.2709 92.1256Z" fill="#272727"/>
<path d="M18.7327 92.1256C19.7324 92.1256 20.5428 91.3171 20.5428 90.3198C20.5428 89.3225 19.7324 88.514 18.7327 88.514C17.7329 88.514 16.9225 89.3225 16.9225 90.3198C16.9225 91.3171 17.7329 92.1256 18.7327 92.1256Z" fill="#272727"/>
<path d="M27.1944 92.1256C28.1941 92.1256 29.0046 91.3171 29.0046 90.3198C29.0046 89.3225 28.1941 88.514 27.1944 88.514C26.1947 88.514 25.3842 89.3225 25.3842 90.3198C25.3842 91.3171 26.1947 92.1256 27.1944 92.1256Z" fill="#272727"/>
<path d="M35.6551 92.1256C36.6548 92.1256 37.4653 91.3171 37.4653 90.3198C37.4653 89.3225 36.6548 88.514 35.6551 88.514C34.6554 88.514 33.8449 89.3225 33.8449 90.3198C33.8449 91.3171 34.6554 92.1256 35.6551 92.1256Z" fill="#272727"/>
<path d="M44.1158 92.1256C45.1155 92.1256 45.926 91.3171 45.926 90.3198C45.926 89.3225 45.1155 88.514 44.1158 88.514C43.116 88.514 42.3056 89.3225 42.3056 90.3198C42.3056 91.3171 43.116 92.1256 44.1158 92.1256Z" fill="#272727"/>
<path d="M52.5775 92.1256C53.5773 92.1256 54.3877 91.3171 54.3877 90.3198C54.3877 89.3225 53.5773 88.514 52.5775 88.514C51.5778 88.514 50.7673 89.3225 50.7673 90.3198C50.7673 91.3171 51.5778 92.1256 52.5775 92.1256Z" fill="#272727"/>
<path d="M61.0393 92.1256C62.039 92.1256 62.8495 91.3171 62.8495 90.3198C62.8495 89.3225 62.039 88.514 61.0393 88.514C60.0396 88.514 59.2291 89.3225 59.2291 90.3198C59.2291 91.3171 60.0396 92.1256 61.0393 92.1256Z" fill="#272727"/>
<path d="M69.5 92.1256C70.4997 92.1256 71.3102 91.3171 71.3102 90.3198C71.3102 89.3225 70.4997 88.514 69.5 88.514C68.5003 88.514 67.6898 89.3225 67.6898 90.3198C67.6898 91.3171 68.5003 92.1256 69.5 92.1256Z" fill="#272727"/>
<path d="M77.9607 92.1256C78.9604 92.1256 79.7709 91.3171 79.7709 90.3198C79.7709 89.3225 78.9604 88.514 77.9607 88.514C76.961 88.514 76.1505 89.3225 76.1505 90.3198C76.1505 91.3171 76.961 92.1256 77.9607 92.1256Z" fill="#272727"/>
<path d="M86.4225 92.1256C87.4222 92.1256 88.2327 91.3171 88.2327 90.3198C88.2327 89.3225 87.4222 88.514 86.4225 88.514C85.4228 88.514 84.6123 89.3225 84.6123 90.3198C84.6123 91.3171 85.4228 92.1256 86.4225 92.1256Z" fill="#272727"/>
<path d="M94.8843 92.1256C95.884 92.1256 96.6945 91.3171 96.6945 90.3198C96.6945 89.3225 95.884 88.514 94.8843 88.514C93.8845 88.514 93.0741 89.3225 93.0741 90.3198C93.0741 91.3171 93.8845 92.1256 94.8843 92.1256Z" fill="#272727"/>
<path d="M103.345 92.1256C104.345 92.1256 105.155 91.3171 105.155 90.3198C105.155 89.3225 104.345 88.514 103.345 88.514C102.345 88.514 101.535 89.3225 101.535 90.3198C101.535 91.3171 102.345 92.1256 103.345 92.1256Z" fill="#272727"/>
<path d="M111.806 92.1256C112.805 92.1256 113.616 91.3171 113.616 90.3198C113.616 89.3225 112.805 88.514 111.806 88.514C110.806 88.514 109.995 89.3225 109.995 90.3198C109.995 91.3171 110.806 92.1256 111.806 92.1256Z" fill="#272727"/>
<path d="M120.267 92.1256C121.267 92.1256 122.078 91.3171 122.078 90.3198C122.078 89.3225 121.267 88.514 120.267 88.514C119.268 88.514 118.457 89.3225 118.457 90.3198C118.457 91.3171 119.268 92.1256 120.267 92.1256Z" fill="#272727"/>
<path d="M128.729 92.1256C129.729 92.1256 130.539 91.3171 130.539 90.3198C130.539 89.3225 129.729 88.514 128.729 88.514C127.729 88.514 126.919 89.3225 126.919 90.3198C126.919 91.3171 127.729 92.1256 128.729 92.1256Z" fill="#272727"/>
<path d="M137.19 92.1256C138.19 92.1256 139 91.3171 139 90.3198C139 89.3225 138.19 88.514 137.19 88.514C136.19 88.514 135.38 89.3225 135.38 90.3198C135.38 91.3171 136.19 92.1256 137.19 92.1256Z" fill="#272727"/>
<path d="M1.81018 100.087C2.80992 100.087 3.62036 99.2789 3.62036 98.2816C3.62036 97.2843 2.80992 96.4758 1.81018 96.4758C0.810446 96.4758 0 97.2843 0 98.2816C0 99.2789 0.810446 100.087 1.81018 100.087Z" fill="#272727"/>
<path d="M10.2709 100.087C11.2706 100.087 12.0811 99.2789 12.0811 98.2816C12.0811 97.2843 11.2706 96.4758 10.2709 96.4758C9.27114 96.4758 8.46069 97.2843 8.46069 98.2816C8.46069 99.2789 9.27114 100.087 10.2709 100.087Z" fill="#272727"/>
<path d="M18.7327 100.087C19.7324 100.087 20.5428 99.2789 20.5428 98.2816C20.5428 97.2843 19.7324 96.4758 18.7327 96.4758C17.7329 96.4758 16.9225 97.2843 16.9225 98.2816C16.9225 99.2789 17.7329 100.087 18.7327 100.087Z" fill="#272727"/>
<path d="M27.1944 100.087C28.1941 100.087 29.0046 99.2789 29.0046 98.2816C29.0046 97.2843 28.1941 96.4758 27.1944 96.4758C26.1947 96.4758 25.3842 97.2843 25.3842 98.2816C25.3842 99.2789 26.1947 100.087 27.1944 100.087Z" fill="#272727"/>
<path d="M35.6551 100.087C36.6548 100.087 37.4653 99.2789 37.4653 98.2816C37.4653 97.2843 36.6548 96.4758 35.6551 96.4758C34.6554 96.4758 33.8449 97.2843 33.8449 98.2816C33.8449 99.2789 34.6554 100.087 35.6551 100.087Z" fill="#272727"/>
<path d="M44.1158 100.087C45.1155 100.087 45.926 99.2789 45.926 98.2816C45.926 97.2843 45.1155 96.4758 44.1158 96.4758C43.116 96.4758 42.3056 97.2843 42.3056 98.2816C42.3056 99.2789 43.116 100.087 44.1158 100.087Z" fill="#272727"/>
<path d="M52.5775 100.087C53.5773 100.087 54.3877 99.2789 54.3877 98.2816C54.3877 97.2843 53.5773 96.4758 52.5775 96.4758C51.5778 96.4758 50.7673 97.2843 50.7673 98.2816C50.7673 99.2789 51.5778 100.087 52.5775 100.087Z" fill="#272727"/>
<path d="M61.0393 100.087C62.039 100.087 62.8495 99.2789 62.8495 98.2816C62.8495 97.2843 62.039 96.4758 61.0393 96.4758C60.0396 96.4758 59.2291 97.2843 59.2291 98.2816C59.2291 99.2789 60.0396 100.087 61.0393 100.087Z" fill="#272727"/>
<path d="M69.5 100.087C70.4997 100.087 71.3102 99.2789 71.3102 98.2816C71.3102 97.2843 70.4997 96.4758 69.5 96.4758C68.5003 96.4758 67.6898 97.2843 67.6898 98.2816C67.6898 99.2789 68.5003 100.087 69.5 100.087Z" fill="#272727"/>
<path d="M77.9607 100.087C78.9604 100.087 79.7709 99.2789 79.7709 98.2816C79.7709 97.2843 78.9604 96.4758 77.9607 96.4758C76.961 96.4758 76.1505 97.2843 76.1505 98.2816C76.1505 99.2789 76.961 100.087 77.9607 100.087Z" fill="#272727"/>
<path d="M86.4225 100.087C87.4222 100.087 88.2327 99.2789 88.2327 98.2816C88.2327 97.2843 87.4222 96.4758 86.4225 96.4758C85.4228 96.4758 84.6123 97.2843 84.6123 98.2816C84.6123 99.2789 85.4228 100.087 86.4225 100.087Z" fill="#272727"/>
<path d="M94.8843 100.087C95.884 100.087 96.6945 99.2789 96.6945 98.2816C96.6945 97.2843 95.884 96.4758 94.8843 96.4758C93.8845 96.4758 93.0741 97.2843 93.0741 98.2816C93.0741 99.2789 93.8845 100.087 94.8843 100.087Z" fill="#272727"/>
<path d="M103.345 100.087C104.345 100.087 105.155 99.2789 105.155 98.2816C105.155 97.2843 104.345 96.4758 103.345 96.4758C102.345 96.4758 101.535 97.2843 101.535 98.2816C101.535 99.2789 102.345 100.087 103.345 100.087Z" fill="#272727"/>
<path d="M111.806 100.087C112.805 100.087 113.616 99.2789 113.616 98.2816C113.616 97.2843 112.805 96.4758 111.806 96.4758C110.806 96.4758 109.995 97.2843 109.995 98.2816C109.995 99.2789 110.806 100.087 111.806 100.087Z" fill="#272727"/>
<path d="M120.267 100.087C121.267 100.087 122.078 99.2789 122.078 98.2816C122.078 97.2843 121.267 96.4758 120.267 96.4758C119.268 96.4758 118.457 97.2843 118.457 98.2816C118.457 99.2789 119.268 100.087 120.267 100.087Z" fill="#272727"/>
<path d="M128.729 100.087C129.729 100.087 130.539 99.2789 130.539 98.2816C130.539 97.2843 129.729 96.4758 128.729 96.4758C127.729 96.4758 126.919 97.2843 126.919 98.2816C126.919 99.2789 127.729 100.087 128.729 100.087Z" fill="#272727"/>
<path d="M137.19 100.087C138.19 100.087 139 99.2789 139 98.2816C139 97.2843 138.19 96.4758 137.19 96.4758C136.19 96.4758 135.38 97.2843 135.38 98.2816C135.38 99.2789 136.19 100.087 137.19 100.087Z" fill="#272727"/>
<path d="M1.81018 108.049C2.80992 108.049 3.62036 107.241 3.62036 106.243C3.62036 105.246 2.80992 104.438 1.81018 104.438C0.810446 104.438 0 105.246 0 106.243C0 107.241 0.810446 108.049 1.81018 108.049Z" fill="#272727"/>
<path d="M10.2709 108.049C11.2706 108.049 12.0811 107.241 12.0811 106.243C12.0811 105.246 11.2706 104.438 10.2709 104.438C9.27114 104.438 8.46069 105.246 8.46069 106.243C8.46069 107.241 9.27114 108.049 10.2709 108.049Z" fill="#272727"/>
<path d="M18.7327 108.049C19.7324 108.049 20.5428 107.241 20.5428 106.243C20.5428 105.246 19.7324 104.438 18.7327 104.438C17.7329 104.438 16.9225 105.246 16.9225 106.243C16.9225 107.241 17.7329 108.049 18.7327 108.049Z" fill="#272727"/>
<path d="M27.1944 108.049C28.1941 108.049 29.0046 107.241 29.0046 106.243C29.0046 105.246 28.1941 104.438 27.1944 104.438C26.1947 104.438 25.3842 105.246 25.3842 106.243C25.3842 107.241 26.1947 108.049 27.1944 108.049Z" fill="#272727"/>
<path d="M35.6551 108.049C36.6548 108.049 37.4653 107.241 37.4653 106.243C37.4653 105.246 36.6548 104.438 35.6551 104.438C34.6554 104.438 33.8449 105.246 33.8449 106.243C33.8449 107.241 34.6554 108.049 35.6551 108.049Z" fill="#272727"/>
<path d="M44.1158 108.049C45.1155 108.049 45.926 107.241 45.926 106.243C45.926 105.246 45.1155 104.438 44.1158 104.438C43.116 104.438 42.3056 105.246 42.3056 106.243C42.3056 107.241 43.116 108.049 44.1158 108.049Z" fill="#272727"/>
<path d="M52.5775 108.049C53.5773 108.049 54.3877 107.241 54.3877 106.243C54.3877 105.246 53.5773 104.438 52.5775 104.438C51.5778 104.438 50.7673 105.246 50.7673 106.243C50.7673 107.241 51.5778 108.049 52.5775 108.049Z" fill="#272727"/>
<path d="M61.0393 108.049C62.039 108.049 62.8495 107.241 62.8495 106.243C62.8495 105.246 62.039 104.438 61.0393 104.438C60.0396 104.438 59.2291 105.246 59.2291 106.243C59.2291 107.241 60.0396 108.049 61.0393 108.049Z" fill="#272727"/>
<path d="M69.5 108.049C70.4997 108.049 71.3102 107.241 71.3102 106.243C71.3102 105.246 70.4997 104.438 69.5 104.438C68.5003 104.438 67.6898 105.246 67.6898 106.243C67.6898 107.241 68.5003 108.049 69.5 108.049Z" fill="#272727"/>
<path d="M77.9607 108.049C78.9604 108.049 79.7709 107.241 79.7709 106.243C79.7709 105.246 78.9604 104.438 77.9607 104.438C76.961 104.438 76.1505 105.246 76.1505 106.243C76.1505 107.241 76.961 108.049 77.9607 108.049Z" fill="#272727"/>
<path d="M86.4225 108.049C87.4222 108.049 88.2327 107.241 88.2327 106.243C88.2327 105.246 87.4222 104.438 86.4225 104.438C85.4228 104.438 84.6123 105.246 84.6123 106.243C84.6123 107.241 85.4228 108.049 86.4225 108.049Z" fill="#272727"/>
<path d="M94.8843 108.049C95.884 108.049 96.6945 107.241 96.6945 106.243C96.6945 105.246 95.884 104.438 94.8843 104.438C93.8845 104.438 93.0741 105.246 93.0741 106.243C93.0741 107.241 93.8845 108.049 94.8843 108.049Z" fill="#272727"/>
<path d="M103.345 108.049C104.345 108.049 105.155 107.241 105.155 106.243C105.155 105.246 104.345 104.438 103.345 104.438C102.345 104.438 101.535 105.246 101.535 106.243C101.535 107.241 102.345 108.049 103.345 108.049Z" fill="#272727"/>
<path d="M111.806 108.049C112.805 108.049 113.616 107.241 113.616 106.243C113.616 105.246 112.805 104.438 111.806 104.438C110.806 104.438 109.995 105.246 109.995 106.243C109.995 107.241 110.806 108.049 111.806 108.049Z" fill="#272727"/>
<path d="M120.267 108.049C121.267 108.049 122.078 107.241 122.078 106.243C122.078 105.246 121.267 104.438 120.267 104.438C119.268 104.438 118.457 105.246 118.457 106.243C118.457 107.241 119.268 108.049 120.267 108.049Z" fill="#272727"/>
<path d="M128.729 108.049C129.729 108.049 130.539 107.241 130.539 106.243C130.539 105.246 129.729 104.438 128.729 104.438C127.729 104.438 126.919 105.246 126.919 106.243C126.919 107.241 127.729 108.049 128.729 108.049Z" fill="#272727"/>
<path d="M137.19 108.049C138.19 108.049 139 107.241 139 106.243C139 105.246 138.19 104.438 137.19 104.438C136.19 104.438 135.38 105.246 135.38 106.243C135.38 107.241 136.19 108.049 137.19 108.049Z" fill="#272727"/>
<path d="M1.81018 116.011C2.80992 116.011 3.62036 115.202 3.62036 114.205C3.62036 113.208 2.80992 112.399 1.81018 112.399C0.810446 112.399 0 113.208 0 114.205C0 115.202 0.810446 116.011 1.81018 116.011Z" fill="#272727"/>
<path d="M10.2709 116.011C11.2706 116.011 12.0811 115.202 12.0811 114.205C12.0811 113.208 11.2706 112.399 10.2709 112.399C9.27114 112.399 8.46069 113.208 8.46069 114.205C8.46069 115.202 9.27114 116.011 10.2709 116.011Z" fill="#272727"/>
<path d="M18.7327 116.011C19.7324 116.011 20.5428 115.202 20.5428 114.205C20.5428 113.208 19.7324 112.399 18.7327 112.399C17.7329 112.399 16.9225 113.208 16.9225 114.205C16.9225 115.202 17.7329 116.011 18.7327 116.011Z" fill="#272727"/>
<path d="M27.1944 116.011C28.1941 116.011 29.0046 115.202 29.0046 114.205C29.0046 113.208 28.1941 112.399 27.1944 112.399C26.1947 112.399 25.3842 113.208 25.3842 114.205C25.3842 115.202 26.1947 116.011 27.1944 116.011Z" fill="#272727"/>
<path d="M35.6551 116.011C36.6548 116.011 37.4653 115.202 37.4653 114.205C37.4653 113.208 36.6548 112.399 35.6551 112.399C34.6554 112.399 33.8449 113.208 33.8449 114.205C33.8449 115.202 34.6554 116.011 35.6551 116.011Z" fill="#272727"/>
<path d="M44.1158 116.011C45.1155 116.011 45.926 115.202 45.926 114.205C45.926 113.208 45.1155 112.399 44.1158 112.399C43.116 112.399 42.3056 113.208 42.3056 114.205C42.3056 115.202 43.116 116.011 44.1158 116.011Z" fill="#272727"/>
<path d="M52.5775 116.011C53.5773 116.011 54.3877 115.202 54.3877 114.205C54.3877 113.208 53.5773 112.399 52.5775 112.399C51.5778 112.399 50.7673 113.208 50.7673 114.205C50.7673 115.202 51.5778 116.011 52.5775 116.011Z" fill="#272727"/>
<path d="M61.0393 116.011C62.039 116.011 62.8495 115.202 62.8495 114.205C62.8495 113.208 62.039 112.399 61.0393 112.399C60.0396 112.399 59.2291 113.208 59.2291 114.205C59.2291 115.202 60.0396 116.011 61.0393 116.011Z" fill="#272727"/>
<path d="M69.5 116.011C70.4997 116.011 71.3102 115.202 71.3102 114.205C71.3102 113.208 70.4997 112.399 69.5 112.399C68.5003 112.399 67.6898 113.208 67.6898 114.205C67.6898 115.202 68.5003 116.011 69.5 116.011Z" fill="#272727"/>
<path d="M77.9607 116.011C78.9604 116.011 79.7709 115.202 79.7709 114.205C79.7709 113.208 78.9604 112.399 77.9607 112.399C76.961 112.399 76.1505 113.208 76.1505 114.205C76.1505 115.202 76.961 116.011 77.9607 116.011Z" fill="#272727"/>
<path d="M86.4225 116.011C87.4222 116.011 88.2327 115.202 88.2327 114.205C88.2327 113.208 87.4222 112.399 86.4225 112.399C85.4228 112.399 84.6123 113.208 84.6123 114.205C84.6123 115.202 85.4228 116.011 86.4225 116.011Z" fill="#272727"/>
<path d="M94.8843 116.011C95.884 116.011 96.6945 115.202 96.6945 114.205C96.6945 113.208 95.884 112.399 94.8843 112.399C93.8845 112.399 93.0741 113.208 93.0741 114.205C93.0741 115.202 93.8845 116.011 94.8843 116.011Z" fill="#272727"/>
<path d="M103.345 116.011C104.345 116.011 105.155 115.202 105.155 114.205C105.155 113.208 104.345 112.399 103.345 112.399C102.345 112.399 101.535 113.208 101.535 114.205C101.535 115.202 102.345 116.011 103.345 116.011Z" fill="#272727"/>
<path d="M111.806 116.011C112.805 116.011 113.616 115.202 113.616 114.205C113.616 113.208 112.805 112.399 111.806 112.399C110.806 112.399 109.995 113.208 109.995 114.205C109.995 115.202 110.806 116.011 111.806 116.011Z" fill="#272727"/>
<path d="M120.267 116.011C121.267 116.011 122.078 115.202 122.078 114.205C122.078 113.208 121.267 112.399 120.267 112.399C119.268 112.399 118.457 113.208 118.457 114.205C118.457 115.202 119.268 116.011 120.267 116.011Z" fill="#272727"/>
<path d="M128.729 116.011C129.729 116.011 130.539 115.202 130.539 114.205C130.539 113.208 129.729 112.399 128.729 112.399C127.729 112.399 126.919 113.208 126.919 114.205C126.919 115.202 127.729 116.011 128.729 116.011Z" fill="#272727"/>
<path d="M137.19 116.011C138.19 116.011 139 115.202 139 114.205C139 113.208 138.19 112.399 137.19 112.399C136.19 112.399 135.38 113.208 135.38 114.205C135.38 115.202 136.19 116.011 137.19 116.011Z" fill="#272727"/>
<path d="M1.81018 123.973C2.80992 123.973 3.62036 123.164 3.62036 122.167C3.62036 121.17 2.80992 120.361 1.81018 120.361C0.810446 120.361 0 121.17 0 122.167C0 123.164 0.810446 123.973 1.81018 123.973Z" fill="#272727"/>
<path d="M10.2709 123.973C11.2706 123.973 12.0811 123.164 12.0811 122.167C12.0811 121.17 11.2706 120.361 10.2709 120.361C9.27114 120.361 8.46069 121.17 8.46069 122.167C8.46069 123.164 9.27114 123.973 10.2709 123.973Z" fill="#272727"/>
<path d="M18.7327 123.973C19.7324 123.973 20.5428 123.164 20.5428 122.167C20.5428 121.17 19.7324 120.361 18.7327 120.361C17.7329 120.361 16.9225 121.17 16.9225 122.167C16.9225 123.164 17.7329 123.973 18.7327 123.973Z" fill="#272727"/>
<path d="M27.1944 123.973C28.1941 123.973 29.0046 123.164 29.0046 122.167C29.0046 121.17 28.1941 120.361 27.1944 120.361C26.1947 120.361 25.3842 121.17 25.3842 122.167C25.3842 123.164 26.1947 123.973 27.1944 123.973Z" fill="#272727"/>
<path d="M35.6551 123.973C36.6548 123.973 37.4653 123.164 37.4653 122.167C37.4653 121.17 36.6548 120.361 35.6551 120.361C34.6554 120.361 33.8449 121.17 33.8449 122.167C33.8449 123.164 34.6554 123.973 35.6551 123.973Z" fill="#272727"/>
<path d="M44.1158 123.973C45.1155 123.973 45.926 123.164 45.926 122.167C45.926 121.17 45.1155 120.361 44.1158 120.361C43.116 120.361 42.3056 121.17 42.3056 122.167C42.3056 123.164 43.116 123.973 44.1158 123.973Z" fill="#272727"/>
<path d="M52.5775 123.973C53.5773 123.973 54.3877 123.164 54.3877 122.167C54.3877 121.17 53.5773 120.361 52.5775 120.361C51.5778 120.361 50.7673 121.17 50.7673 122.167C50.7673 123.164 51.5778 123.973 52.5775 123.973Z" fill="#272727"/>
<path d="M61.0393 123.973C62.039 123.973 62.8495 123.164 62.8495 122.167C62.8495 121.17 62.039 120.361 61.0393 120.361C60.0396 120.361 59.2291 121.17 59.2291 122.167C59.2291 123.164 60.0396 123.973 61.0393 123.973Z" fill="#272727"/>
<path d="M69.5 123.973C70.4997 123.973 71.3102 123.164 71.3102 122.167C71.3102 121.17 70.4997 120.361 69.5 120.361C68.5003 120.361 67.6898 121.17 67.6898 122.167C67.6898 123.164 68.5003 123.973 69.5 123.973Z" fill="#272727"/>
<path d="M77.9607 123.973C78.9604 123.973 79.7709 123.164 79.7709 122.167C79.7709 121.17 78.9604 120.361 77.9607 120.361C76.961 120.361 76.1505 121.17 76.1505 122.167C76.1505 123.164 76.961 123.973 77.9607 123.973Z" fill="#272727"/>
<path d="M86.4225 123.973C87.4222 123.973 88.2327 123.164 88.2327 122.167C88.2327 121.17 87.4222 120.361 86.4225 120.361C85.4228 120.361 84.6123 121.17 84.6123 122.167C84.6123 123.164 85.4228 123.973 86.4225 123.973Z" fill="#272727"/>
<path d="M94.8843 123.973C95.884 123.973 96.6945 123.164 96.6945 122.167C96.6945 121.17 95.884 120.361 94.8843 120.361C93.8845 120.361 93.0741 121.17 93.0741 122.167C93.0741 123.164 93.8845 123.973 94.8843 123.973Z" fill="#272727"/>
<path d="M103.345 123.973C104.345 123.973 105.155 123.164 105.155 122.167C105.155 121.17 104.345 120.361 103.345 120.361C102.345 120.361 101.535 121.17 101.535 122.167C101.535 123.164 102.345 123.973 103.345 123.973Z" fill="#272727"/>
<path d="M111.806 123.973C112.805 123.973 113.616 123.164 113.616 122.167C113.616 121.17 112.805 120.361 111.806 120.361C110.806 120.361 109.995 121.17 109.995 122.167C109.995 123.164 110.806 123.973 111.806 123.973Z" fill="#272727"/>
<path d="M120.267 123.973C121.267 123.973 122.078 123.164 122.078 122.167C122.078 121.17 121.267 120.361 120.267 120.361C119.268 120.361 118.457 121.17 118.457 122.167C118.457 123.164 119.268 123.973 120.267 123.973Z" fill="#272727"/>
<path d="M128.729 123.973C129.729 123.973 130.539 123.164 130.539 122.167C130.539 121.17 129.729 120.361 128.729 120.361C127.729 120.361 126.919 121.17 126.919 122.167C126.919 123.164 127.729 123.973 128.729 123.973Z" fill="#272727"/>
<path d="M137.19 123.973C138.19 123.973 139 123.164 139 122.167C139 121.17 138.19 120.361 137.19 120.361C136.19 120.361 135.38 121.17 135.38 122.167C135.38 123.164 136.19 123.973 137.19 123.973Z" fill="#272727"/>
<path d="M1.81018 131.934C2.80992 131.934 3.62036 131.126 3.62036 130.129C3.62036 129.131 2.80992 128.323 1.81018 128.323C0.810446 128.323 0 129.131 0 130.129C0 131.126 0.810446 131.934 1.81018 131.934Z" fill="#272727"/>
<path d="M10.2709 131.934C11.2706 131.934 12.0811 131.126 12.0811 130.129C12.0811 129.131 11.2706 128.323 10.2709 128.323C9.27114 128.323 8.46069 129.131 8.46069 130.129C8.46069 131.126 9.27114 131.934 10.2709 131.934Z" fill="#272727"/>
<path d="M18.7327 131.934C19.7324 131.934 20.5428 131.126 20.5428 130.129C20.5428 129.131 19.7324 128.323 18.7327 128.323C17.7329 128.323 16.9225 129.131 16.9225 130.129C16.9225 131.126 17.7329 131.934 18.7327 131.934Z" fill="#272727"/>
<path d="M27.1944 131.934C28.1941 131.934 29.0046 131.126 29.0046 130.129C29.0046 129.131 28.1941 128.323 27.1944 128.323C26.1947 128.323 25.3842 129.131 25.3842 130.129C25.3842 131.126 26.1947 131.934 27.1944 131.934Z" fill="#272727"/>
<path d="M35.6551 131.934C36.6548 131.934 37.4653 131.126 37.4653 130.129C37.4653 129.131 36.6548 128.323 35.6551 128.323C34.6554 128.323 33.8449 129.131 33.8449 130.129C33.8449 131.126 34.6554 131.934 35.6551 131.934Z" fill="#272727"/>
<path d="M44.1158 131.934C45.1155 131.934 45.926 131.126 45.926 130.129C45.926 129.131 45.1155 128.323 44.1158 128.323C43.116 128.323 42.3056 129.131 42.3056 130.129C42.3056 131.126 43.116 131.934 44.1158 131.934Z" fill="#272727"/>
<path d="M52.5775 131.934C53.5773 131.934 54.3877 131.126 54.3877 130.129C54.3877 129.131 53.5773 128.323 52.5775 128.323C51.5778 128.323 50.7673 129.131 50.7673 130.129C50.7673 131.126 51.5778 131.934 52.5775 131.934Z" fill="#272727"/>
<path d="M61.0393 131.934C62.039 131.934 62.8495 131.126 62.8495 130.129C62.8495 129.131 62.039 128.323 61.0393 128.323C60.0396 128.323 59.2291 129.131 59.2291 130.129C59.2291 131.126 60.0396 131.934 61.0393 131.934Z" fill="#272727"/>
<path d="M69.5 131.934C70.4997 131.934 71.3102 131.126 71.3102 130.129C71.3102 129.131 70.4997 128.323 69.5 128.323C68.5003 128.323 67.6898 129.131 67.6898 130.129C67.6898 131.126 68.5003 131.934 69.5 131.934Z" fill="#272727"/>
<path d="M77.9607 131.934C78.9604 131.934 79.7709 131.126 79.7709 130.129C79.7709 129.131 78.9604 128.323 77.9607 128.323C76.961 128.323 76.1505 129.131 76.1505 130.129C76.1505 131.126 76.961 131.934 77.9607 131.934Z" fill="#272727"/>
<path d="M86.4225 131.934C87.4222 131.934 88.2327 131.126 88.2327 130.129C88.2327 129.131 87.4222 128.323 86.4225 128.323C85.4228 128.323 84.6123 129.131 84.6123 130.129C84.6123 131.126 85.4228 131.934 86.4225 131.934Z" fill="#272727"/>
<path d="M94.8843 131.934C95.884 131.934 96.6945 131.126 96.6945 130.129C96.6945 129.131 95.884 128.323 94.8843 128.323C93.8845 128.323 93.0741 129.131 93.0741 130.129C93.0741 131.126 93.8845 131.934 94.8843 131.934Z" fill="#272727"/>
<path d="M103.345 131.934C104.345 131.934 105.155 131.126 105.155 130.129C105.155 129.131 104.345 128.323 103.345 128.323C102.345 128.323 101.535 129.131 101.535 130.129C101.535 131.126 102.345 131.934 103.345 131.934Z" fill="#272727"/>
<path d="M111.806 131.934C112.805 131.934 113.616 131.126 113.616 130.129C113.616 129.131 112.805 128.323 111.806 128.323C110.806 128.323 109.995 129.131 109.995 130.129C109.995 131.126 110.806 131.934 111.806 131.934Z" fill="#272727"/>
<path d="M120.267 131.934C121.267 131.934 122.078 131.126 122.078 130.129C122.078 129.131 121.267 128.323 120.267 128.323C119.268 128.323 118.457 129.131 118.457 130.129C118.457 131.126 119.268 131.934 120.267 131.934Z" fill="#272727"/>
<path d="M128.729 131.934C129.729 131.934 130.539 131.126 130.539 130.129C130.539 129.131 129.729 128.323 128.729 128.323C127.729 128.323 126.919 129.131 126.919 130.129C126.919 131.126 127.729 131.934 128.729 131.934Z" fill="#272727"/>
<path d="M137.19 131.934C138.19 131.934 139 131.126 139 130.129C139 129.131 138.19 128.323 137.19 128.323C136.19 128.323 135.38 129.131 135.38 130.129C135.38 131.126 136.19 131.934 137.19 131.934Z" fill="#272727"/>
</g>
<defs>
<clipPath id="clip0_7_1658">
<rect width="139" height="131" fill="white" transform="translate(0 0.934448)"/>
</clipPath>
</defs>
</svg>
