<svg width="60" height="11" viewBox="0 0 60 11" fill="none" xmlns="http://www.w3.org/2000/svg">
<path d="M58.2857 0.0011031C57.9117 0.0231566 57.6301 0.352856 57.6301 0.727765V9.71565C57.6301 10.0906 57.9128 10.4203 58.2857 10.4423C58.6916 10.4666 59.0282 10.1446 59.0282 9.74212V0.7013C59.0282 0.299927 58.6916 -0.0231557 58.2857 0.0011031Z" fill="white"/>
<path d="M20.2198 0.0749817C19.8711 -0.100343 19.4454 0.0419015 19.2705 0.391449L15.3635 8.21822C15.3635 8.21822 15.358 8.22153 15.3569 8.21822L11.4488 0.391449C11.2739 0.0407988 10.8493 -0.100343 10.4995 0.0749817C10.1509 0.250307 10.009 0.675938 10.1839 1.02659L14.6903 10.0531C14.8146 10.3012 15.0643 10.4445 15.3228 10.4445C15.3349 10.4445 15.347 10.4434 15.3591 10.4423C15.3712 10.4423 15.3833 10.4445 15.3954 10.4445C15.655 10.4445 15.9047 10.3012 16.0279 10.0531L20.5344 1.02659C20.7093 0.675938 20.5674 0.250307 20.2187 0.0749817H20.2198Z" fill="white"/>
<path d="M42.7237 0.0716733C42.3497 0.0948294 42.0659 0.424529 42.0659 0.80054V7.66027C42.0659 7.66027 42.0615 7.66578 42.0593 7.66247L36.4089 0.274565C36.1922 -0.00771921 35.7929 -0.0904197 35.475 0.109164C35.2682 0.23928 35.1516 0.476354 35.1516 0.72225V9.71345C35.1516 10.0895 35.4343 10.4192 35.8094 10.4423C36.2164 10.4666 36.554 10.1435 36.554 9.74101V2.78425C36.554 2.78425 36.5584 2.77874 36.5606 2.78204L42.2111 10.1688C42.3464 10.3453 42.5532 10.4434 42.7676 10.4434C42.9007 10.4434 43.036 10.4059 43.1581 10.3243C43.3572 10.192 43.4683 9.96045 43.4683 9.72006V0.772973C43.4683 0.370498 43.1306 0.0474144 42.7237 0.0716733Z" fill="white"/>
<path d="M54.833 0H46.3645C45.9905 0 45.6616 0.283387 45.6396 0.657193C45.6154 1.06408 45.9366 1.4015 46.3381 1.4015H49.8832C49.8832 1.4015 49.8865 1.4037 49.8865 1.40481V9.71455C49.8865 10.0895 50.1692 10.4192 50.5421 10.4412C50.9479 10.4655 51.2845 10.1435 51.2845 9.74101V1.40591C51.2845 1.40591 51.2867 1.4026 51.2878 1.4026H54.8055C55.1794 1.4026 55.5083 1.11921 55.5303 0.745407C55.5545 0.338521 55.2333 0.00110267 54.8319 0.00110267L54.833 0Z" fill="white"/>
<path d="M6.24828 0.39171C6.11849 0.131479 5.8512 -0.0129711 5.57841 0.00136367C5.30672 -0.0129711 5.03944 0.132582 4.90965 0.39171L0.403161 9.41819C0.22827 9.76884 0.370162 10.1945 0.718845 10.3698C0.820041 10.4205 0.928935 10.4448 1.03453 10.4448C1.29412 10.4448 1.54381 10.3014 1.667 10.0533L2.77355 7.83586C2.77355 7.83586 2.77575 7.83365 2.77685 7.83365H8.37778C8.37778 7.83365 8.37998 7.83365 8.38108 7.83586L9.48763 10.0533C9.61192 10.3014 9.86161 10.4448 10.1201 10.4448C10.2268 10.4448 10.3346 10.4205 10.4358 10.3698C10.7845 10.1945 10.9264 9.76884 10.7515 9.41819L6.24828 0.39171ZM3.30922 6.76406L5.57511 2.22546C5.57511 2.22546 5.58061 2.22215 5.58171 2.22546L7.8476 6.76406C7.8476 6.76406 7.84761 6.76957 7.84431 6.76957H3.31252C3.31252 6.76957 3.30812 6.76626 3.30922 6.76406Z" fill="white"/>
<path d="M33.0265 9.48409C33.0177 9.45983 33.0089 9.43668 32.9968 9.41462L28.8478 1.00895C28.5915 0.414606 28.0118 0.0319786 27.365 0.0319786C26.9229 0.0319786 26.5126 0.210612 26.2145 0.512744L25.1949 2.45896L22.7475 7.62609C22.3438 8.40678 21.7069 8.92393 20.948 9.10477L24.6944 1.54154C24.7021 1.5261 24.7087 1.51066 24.7153 1.49523C24.7769 1.35739 24.9122 1.26808 25.064 1.26808C25.0783 1.26808 25.0926 1.26918 25.1058 1.27138L25.7228 0.172018C25.5193 0.0815989 25.2961 0.0319786 25.064 0.0319786C24.4161 0.0319786 23.8353 0.415709 23.5801 1.01115L19.4256 9.39588C19.419 9.40801 19.4135 9.42014 19.408 9.43337C19.3684 9.52269 19.3475 9.61751 19.3475 9.71455C19.3475 10.0773 19.6313 10.3751 19.9877 10.3971C20.101 10.407 20.2154 10.4114 20.3287 10.4114C21.8158 10.4114 23.1325 9.57782 23.8496 8.18294C23.8529 8.17742 23.8551 8.17081 23.8584 8.1653L26.1936 3.23524V3.23414L26.2145 3.19003L26.8987 1.75105V1.74884L27.001 1.53161C27.0054 1.52279 27.0098 1.51287 27.0131 1.50405C27.0725 1.3607 27.2111 1.26808 27.3662 1.26808C27.5212 1.26808 27.6598 1.3607 27.7192 1.50405C27.7247 1.51618 27.7302 1.52941 27.7357 1.54154L31.469 9.10367C30.7155 8.92173 30.0819 8.40568 29.6782 7.62609L27.221 2.4314L26.5423 3.88141L28.5684 8.1653C28.5717 8.17191 28.5739 8.17742 28.5772 8.18404C29.3054 9.60098 30.5846 10.4125 32.0871 10.4125C32.2059 10.4125 32.3258 10.407 32.4435 10.3971C32.5183 10.3905 32.5909 10.3706 32.6591 10.3376C32.911 10.2152 33.0672 9.97699 33.0672 9.71565C33.0672 9.63957 33.054 9.56128 33.0265 9.48409Z" fill="white"/>
</svg>
