<svg width="60" height="48" viewBox="0 0 60 48" fill="none" xmlns="http://www.w3.org/2000/svg">
<path d="M29.9615 37.8663C29.5105 37.8663 29.0595 37.7682 28.6393 37.573L1.80721 25.029C0.691867 24.5085 0 23.418 0 22.1841C0 20.9502 0.692967 19.8607 1.80721 19.3392L28.6382 6.79517C29.4808 6.40262 30.4443 6.40262 31.2836 6.79517L58.1157 19.3392C59.231 19.8596 59.9229 20.9502 59.9229 22.1841C59.9229 23.418 59.2299 24.5074 58.1157 25.029L31.2847 37.573C30.8634 37.7693 30.4124 37.8674 29.9615 37.8674V37.8663ZM3.39994 22.1841L29.9626 34.6013L56.5252 22.1841L29.9626 9.76687L3.39994 22.1841Z" fill="#0050F4"/>
<path d="M58.1168 13.2403L31.2847 0.696283C30.4454 0.304834 29.4808 0.303731 28.6393 0.696283L1.80721 13.2403C0.691867 13.7608 0 14.8513 0 16.0852C0 17.0754 0.450978 17.9663 1.20334 18.5519L4.91786 16.7953L3.39994 16.0852L29.9626 3.66799L56.5252 16.0852L29.9626 28.5024L11.2338 19.7472L7.41694 21.5522L28.6404 31.4741C29.0606 31.6704 29.5105 31.7674 29.9626 31.7674C30.4146 31.7674 30.8656 31.6693 31.2858 31.473L58.1168 18.929C59.2321 18.4085 59.924 17.318 59.924 16.0841C59.924 14.8502 59.231 13.7608 58.1168 13.2392V13.2403Z" fill="#0050F4"/>
<path d="M44.1585 30.474V41.3981C44.1585 43.1349 42.7494 44.5474 41.017 44.5474H18.9081C17.1757 44.5474 15.7666 43.1349 15.7666 41.3981V33.9992C15.7666 33.9761 12.5218 32.3496 12.5218 32.4874V41.3992C12.5218 44.9289 15.3872 47.8014 18.9081 47.8014H41.017C44.5379 47.8014 47.4033 44.9289 47.4033 41.3992V28.4561C46.3353 29.186 45.3046 29.894 44.1585 30.4751V30.474Z" fill="#0050F4"/>
<path d="M52.2695 40.4807C51.373 40.4807 50.647 39.753 50.647 38.8543V26.9024L34.1731 19.6049C33.3537 19.2421 32.983 18.2817 33.3449 17.4602C33.7079 16.6387 34.667 16.2682 35.4843 16.6299L52.925 24.3552C53.5124 24.6155 53.8919 25.1988 53.8919 25.8427V38.8543C53.8919 39.753 53.1659 40.4807 52.2695 40.4807Z" fill="white"/>
<path d="M52.0671 45.3601C53.0749 45.3601 53.8919 44.541 53.8919 43.5307C53.8919 42.5204 53.0749 41.7014 52.0671 41.7014C51.0593 41.7014 50.2423 42.5204 50.2423 43.5307C50.2423 44.541 51.0593 45.3601 52.0671 45.3601Z" fill="white"/>
</svg>
